<svg width="105" height="85" viewBox="0 0 105 85" fill="none" xmlns="http://www.w3.org/2000/svg">
<path d="M44.1889 80.2239L31.502 60.8889C31.769 60.8369 32.036 60.7959 32.302 60.7239C33.123 60.5809 33.9229 60.3959 34.7229 60.1809C42.6976 58.1293 49.9213 53.8449 55.5459 47.8309C56.3729 47.3554 57.0758 46.691 57.597 45.8919L59.8849 42.4049C60.0903 42.1069 60.2849 41.8093 60.4689 41.5119L67.3929 30.968C68.1216 29.8725 68.472 28.5687 68.3906 27.2556C68.3092 25.9424 67.8004 24.692 66.942 23.6949C66.756 23.4713 66.5534 23.2621 66.336 23.0689C65.8214 22.599 65.223 22.2303 64.5719 21.9819C65.4239 22.0819 66.265 22.2079 67.095 22.3619C74.6379 23.7461 81.6778 27.1087 87.4949 32.106C88.5509 33.006 89.567 33.963 90.531 34.968L64.61 74.4489L64.5999 74.459C64.5999 74.469 64.59 74.48 64.5789 74.49V74.4999C64.5666 74.5158 64.5565 74.5333 64.549 74.5519L60.825 80.2239C59.9198 81.6038 58.6856 82.7368 57.2335 83.5208C55.7815 84.3049 54.1572 84.7154 52.5069 84.7154C50.8567 84.7154 49.2324 84.3049 47.7804 83.5208C46.3283 82.7368 45.0941 81.6038 44.1889 80.2239Z" fill="#AAD6F8"/>
<path d="M31.5023 60.889L20.8863 44.713L16.4753 37.984L16.3933 37.871C16.3876 37.8653 16.3841 37.8579 16.3833 37.85C16.3723 37.84 16.3623 37.83 16.3623 37.82L16.3618 37.8159L16.3597 37.8123L16.3563 37.8098L16.3523 37.809C16.3523 37.799 16.3423 37.789 16.3423 37.778L16.3313 37.768L6.46226 22.751C6.45362 22.7423 6.44652 22.7321 6.44126 22.721C6.43126 22.71 6.43127 22.71 6.43127 22.7L1.65127 15.417C0.664766 13.9162 0.102798 12.1765 0.0249739 10.3822C-0.0528505 8.58793 0.356367 6.80606 1.20922 5.22553C2.06208 3.64499 3.32678 2.32471 4.86921 1.40472C6.41164 0.484743 8.17431 -0.000656002 9.97027 6.65391e-07H30.1153C30.0953 0.100001 30.0853 0.215994 30.0743 0.317994C29.8067 2.25883 29.673 4.21582 29.6743 6.17502C29.6743 6.94502 29.6953 7.70401 29.7363 8.46301C29.7363 8.48301 29.7463 8.49301 29.7463 8.51401C30.2145 17.4212 33.4247 25.9659 38.9373 32.978C38.9445 32.9938 38.9551 33.0078 38.9683 33.019L47.4203 45.892C48.0893 46.9169 49.053 47.7154 50.1844 48.1823C51.3158 48.6492 52.5621 48.7628 53.7593 48.508C54.3859 48.3765 54.9881 48.1481 55.5443 47.831C49.9196 53.845 42.6959 58.1293 34.7213 60.181C33.9213 60.396 33.1213 60.581 32.3003 60.724C32.0343 60.796 31.7673 60.837 31.5023 60.889Z" fill="url(#paint0_linear_1_3)"/>
<path d="M37.6238 30.968L38.9368 32.978C33.4242 25.9659 30.214 17.4212 29.7458 8.51401C29.7458 8.49301 29.7358 8.48301 29.7358 8.46301C29.6948 7.70401 29.6738 6.94502 29.6738 6.17502C29.6726 4.21582 29.8062 2.25883 30.0738 0.317994C30.0848 0.217994 30.0948 0.103001 30.1148 6.65391e-07H95.0448C96.8408 -0.000656002 98.6035 0.484743 100.146 1.40472C101.688 2.32471 102.953 3.64499 103.806 5.22553C104.659 6.80606 105.068 8.58793 104.99 10.3822C104.912 12.1765 104.35 13.9162 103.364 15.417L93.9168 29.831C93.8989 29.8603 93.8781 29.8877 93.8549 29.913H93.8448C93.837 29.9314 93.8266 29.9486 93.8138 29.964V29.975L93.8038 29.985C93.7984 29.9963 93.7913 30.0067 93.7828 30.016L90.5318 34.97C89.5678 33.965 88.5518 33.011 87.4958 32.108C81.6787 27.1108 74.6387 23.7482 67.0958 22.364C66.2658 22.21 65.4248 22.087 64.5728 21.984C63.8541 21.6876 63.0833 21.5376 62.3058 21.543H42.7118C41.8806 21.543 41.0581 21.7131 40.2949 22.0427C39.5318 22.3724 38.8442 22.8547 38.2745 23.46C37.7047 24.0653 37.2647 24.7807 36.9817 25.5623C36.6987 26.344 36.5786 27.1752 36.6288 28.005C36.6305 28.0774 36.6372 28.1496 36.6488 28.221C36.7357 29.2045 37.0712 30.1498 37.6238 30.968Z" fill="url(#paint1_linear_1_3)"/>
<g style="mix-blend-mode:multiply" opacity="0.2">
<path d="M34.6084 60.222C34.6494 60.212 34.6804 60.1909 34.7214 60.1809C35.6544 59.8529 36.5884 59.5139 37.5014 59.1549C38.4554 58.7759 39.3884 58.365 40.3114 57.934C41.2244 57.483 42.1374 57.0339 43.0304 56.5339C43.9234 56.0339 44.7944 55.5289 45.6554 54.9959C46.5074 54.4419 47.3384 53.867 48.1554 53.283C48.9724 52.699 49.7764 52.0619 50.5554 51.4259C51.3344 50.7899 52.0744 50.103 52.8224 49.416C53.1404 49.116 53.4484 48.8099 53.7564 48.5029C54.383 48.3715 54.9852 48.1431 55.5414 47.826C56.3684 47.3504 57.0712 46.686 57.5924 45.8869L59.8804 42.3999C60.0857 42.1019 60.2804 41.8043 60.4644 41.507L67.3884 30.963C68.1171 29.8675 68.4674 28.5638 68.386 27.2506C68.3046 25.9375 67.7958 24.687 66.9374 23.6899C67.8001 24.5587 68.3732 25.6729 68.5784 26.8799C68.8064 28.1269 68.6415 29.4138 68.1064 30.563C67.8394 31.127 67.5064 31.6399 67.2064 32.1419L66.2934 33.671L64.4164 36.7069C63.1651 38.7269 61.8967 40.7373 60.6114 42.7379L58.6724 45.7329C58.3458 46.286 57.9646 46.805 57.5344 47.282C57.1086 47.7381 56.6176 48.1287 56.0774 48.4409C55.3694 49.1699 54.6514 49.888 53.9024 50.575C53.1234 51.283 52.3234 51.9489 51.4924 52.5949C50.6614 53.2409 49.8204 53.837 48.9584 54.421C48.0764 54.996 47.1844 55.5289 46.2714 56.0419C45.3584 56.5549 44.4354 57.016 43.4814 57.442C42.5274 57.868 41.5734 58.2629 40.5984 58.6119C39.6234 58.9609 38.6294 59.2579 37.6344 59.5349L36.1264 59.9139L34.6084 60.222Z" fill="black"/>
</g>
<g style="mix-blend-mode:multiply" opacity="0.2">
<path d="M87.5779 32.168C87.5469 32.147 87.5259 32.127 87.4959 32.106C85.8078 30.8762 84.0469 29.7495 82.2229 28.732C81.3229 28.198 80.3769 27.726 79.4329 27.265C78.4889 26.804 77.5249 26.372 76.5609 25.972C75.5869 25.593 74.6119 25.203 73.6169 24.872C72.6219 24.541 71.6269 24.256 70.6219 23.979C69.6169 23.702 68.5909 23.466 67.5649 23.279C67.3189 23.227 67.0319 23.166 66.8169 23.135L66.3339 23.063C65.8194 22.5931 65.221 22.2244 64.5699 21.976C63.8511 21.6796 63.0804 21.5296 62.3029 21.535H42.7119C44.5369 21.361 46.3629 21.279 48.1989 21.155C50.0249 21.063 51.8509 20.971 53.6769 20.92C55.5029 20.869 57.3279 20.82 59.1539 20.786L61.8929 20.745C62.3897 20.7247 62.8874 20.7488 63.3799 20.817C63.8607 20.8883 64.3321 21.012 64.7859 21.186L66.2729 21.402L67.0629 21.525C67.3699 21.566 67.6059 21.625 67.8829 21.689C68.9399 21.889 69.9959 22.161 71.0429 22.448C72.0899 22.735 73.1039 23.104 74.1199 23.484C75.1359 23.864 76.1299 24.284 77.1049 24.746C78.0689 25.228 79.0329 25.72 79.9669 26.264C80.9009 26.808 81.8029 27.392 82.6749 28.008C83.5469 28.624 84.3979 29.3 85.2179 29.987C86.041 30.6736 86.8287 31.4015 87.5779 32.168Z" fill="black"/>
</g>
<g style="mix-blend-mode:multiply" opacity="0.2">
<path d="M47.4204 45.892C45.8094 43.882 44.2714 41.82 42.7534 39.748C41.2764 37.707 39.8394 35.648 38.4244 33.563L38.3324 33.44C36.9123 31.6854 35.6412 29.8152 34.5324 27.849C33.9994 26.865 33.4764 25.859 33.0144 24.834C32.5524 23.809 32.1424 22.741 31.7634 21.685C31.5884 21.151 31.3834 20.628 31.2404 20.085C31.0974 19.542 30.9324 18.998 30.7994 18.455C30.5174 17.3674 30.2915 16.2659 30.1224 15.155C30.0504 14.601 29.9474 14.047 29.9064 13.493C29.8454 12.929 29.7934 12.375 29.7634 11.811C29.6966 10.6976 29.6862 9.58151 29.7324 8.46704C29.7324 8.48704 29.7424 8.49704 29.7424 8.51804C30.0814 10.703 30.5014 12.857 31.0424 14.96C31.3424 16.016 31.6424 17.073 31.9864 18.109C32.3144 19.155 32.7144 20.171 33.1044 21.186C33.9324 23.2007 34.8811 25.1636 35.9454 27.064C36.1714 27.453 36.4074 27.833 36.6454 28.223C36.732 29.2072 37.0675 30.1532 37.6204 30.972L38.9334 32.982C38.9406 32.9978 38.9512 33.0118 38.9644 33.023L47.4204 45.892Z" fill="black"/>
</g>
<g style="mix-blend-mode:screen" opacity="0.4">
<path d="M6.43127 22.7L1.65127 15.417C0.664766 13.9162 0.102798 12.1765 0.0249739 10.3822C-0.0528505 8.58793 0.356367 6.80606 1.20922 5.22553C2.06208 3.64499 3.32678 2.32471 4.86921 1.40472C6.41164 0.484743 8.17431 -0.000656002 9.97027 6.65391e-07H35.3023C35.3023 6.65391e-07 34.4403 0.0720021 32.9223 0.164002C32.1323 0.195002 31.1783 0.256994 30.0703 0.317994C29.0343 0.369994 27.8863 0.431016 26.6243 0.472016C24.0243 0.572016 20.9933 0.667018 17.7313 0.718018C16.1103 0.739018 14.4313 0.790009 12.7153 0.790009C11.8643 0.800009 11.0023 0.800005 10.1403 0.811005C9.33937 0.822556 8.54194 0.918745 7.76127 1.09799C6.2129 1.47067 4.79031 2.24543 3.63726 3.34399C2.5135 4.4148 1.66539 5.74152 1.16526 7.211C0.703718 8.59727 0.559845 10.0696 0.744273 11.519C0.816273 11.858 0.878267 12.196 0.950267 12.535C1.02227 12.874 1.16526 13.15 1.25726 13.468C1.30826 13.622 1.35027 13.776 1.41127 13.92L1.64727 14.381C1.80127 14.669 1.94727 14.956 2.08827 15.233C3.44227 17.458 4.50927 19.356 5.27827 20.669C5.93927 21.787 6.32827 22.515 6.43127 22.7Z" fill="white"/>
</g>
<g style="mix-blend-mode:multiply" opacity="0.35">
<path d="M16.3398 37.7781C16.3398 37.7891 16.3498 37.7991 16.3598 37.8091H16.3498C16.3498 37.7991 16.3398 37.7891 16.3398 37.7781Z" fill="black"/>
</g>
<g style="mix-blend-mode:multiply" opacity="0.35">
<path d="M44.1888 80.224L31.5018 60.889L20.8858 44.713L16.3928 37.871C16.3872 37.8653 16.3837 37.8579 16.3828 37.85C16.5778 38.117 17.2438 39.03 18.2828 40.456C19.5038 42.189 21.2988 44.631 23.3508 47.626C25.4028 50.621 27.8428 54.078 30.3668 57.842C31.0028 58.786 31.6488 59.75 32.3048 60.724C32.9608 61.698 33.6048 62.663 34.2638 63.648C35.5768 65.638 36.9108 67.648 38.2438 69.669C39.5768 71.69 40.8798 73.721 42.1828 75.721C42.8288 76.716 43.4648 77.711 44.1008 78.696C44.4188 79.167 44.7168 79.711 45.0448 80.121L45.5068 80.768C45.6808 80.962 45.8758 81.147 46.0498 81.342C47.4937 82.7956 49.3677 83.7453 51.3938 84.05C53.2361 84.2949 55.1102 84.0141 56.7998 83.24C57.1898 83.04 57.5488 82.819 57.9078 82.614C58.2458 82.368 58.5748 82.132 58.8928 81.896C59.1798 81.629 59.4568 81.363 59.7228 81.106C59.9798 80.819 60.2158 80.506 60.4408 80.234C61.3028 79.075 62.0518 77.998 62.6668 77.147C63.7438 75.67 64.4108 74.726 64.5848 74.5C64.5724 74.5158 64.5623 74.5333 64.5548 74.552L60.8308 80.224C59.9259 81.6051 58.6915 82.7392 57.2388 83.5241C55.7862 84.309 54.161 84.72 52.5098 84.72C50.8587 84.72 49.2335 84.309 47.7808 83.5241C46.3282 82.7392 45.0937 81.6051 44.1888 80.224Z" fill="black"/>
</g>
<g style="mix-blend-mode:screen" opacity="0.4">
<path d="M93.8139 29.9619C93.8267 29.9465 93.8371 29.9294 93.8449 29.9109C94.0299 29.5929 94.6039 28.619 95.4859 27.131C96.5939 25.316 98.1219 22.69 100.061 19.602C101.005 18.064 102.123 16.3709 103.128 14.6169C104.124 12.8149 104.495 10.7341 104.184 8.69895C104.017 7.64058 103.674 6.61769 103.169 5.67294C102.64 4.71349 101.954 3.85006 101.138 3.11896C100.945 2.92514 100.732 2.7531 100.502 2.60596C100.266 2.44196 100.051 2.27693 99.8149 2.12393C99.3364 1.84491 98.8345 1.60804 98.3149 1.41596C98.0589 1.33396 97.7919 1.21096 97.5359 1.14896L96.7559 0.984955C96.4736 0.917481 96.1842 0.883905 95.8939 0.884949L94.9939 0.822938L87.7939 0.791932C85.4039 0.771932 83.0549 0.750941 80.7679 0.719941C76.2129 0.668941 71.9679 0.535959 68.3149 0.463959C64.6619 0.391959 61.6379 0.227945 59.5039 0.155945C57.3809 0.0639455 56.1699 0.00195379 56.1699 0.00195379H95.0459C96.8419 0.00129712 98.6045 0.486696 100.147 1.40668C101.689 2.32666 102.954 3.64691 103.807 5.22745C104.66 6.80799 105.069 8.58988 104.991 10.3842C104.913 12.1784 104.351 13.9182 103.365 15.4189L93.9169 29.8309C93.8989 29.8602 93.8782 29.8877 93.8549 29.9129C93.8448 29.9319 93.8308 29.9486 93.8139 29.9619Z" fill="white"/>
</g>
<defs>
<linearGradient id="paint0_linear_1_3" x1="-689.261" y1="-41.5872" x2="-630.997" y2="-71.8518" gradientUnits="userSpaceOnUse">
<stop stop-color="#1D2671"/>
<stop offset="1" stop-color="#1D2671"/>
</linearGradient>
<linearGradient id="paint1_linear_1_3" x1="-670.93" y1="-132.187" x2="-670.93" y2="-61.6521" gradientUnits="userSpaceOnUse">
<stop stop-color="#FC7300"/>
<stop offset="1" stop-color="#0092FF"/>
</linearGradient>
</defs>
</svg>
