<svg width="74" height="76" viewBox="0 0 74 76" fill="none" xmlns="http://www.w3.org/2000/svg">
<g clip-path="url(#clip0_3_3)">
<path d="M32.3797 14.3395C32.0839 14.2999 31.7839 14.2738 31.4797 14.2613C30.9922 14.2415 30.551 14.2108 30.1562 14.1691C29.8 14.1327 29.5339 13.915 29.3578 13.516C29.3478 13.4934 29.3321 13.474 29.3122 13.4599C29.2924 13.4459 29.2692 13.4377 29.2453 13.4363C29.1286 13.429 29.0635 13.4822 29.05 13.5957C28.9047 12.9285 28.5438 12.3441 28.3766 11.7598C28.2922 11.4671 28.2167 11.1785 28.15 10.8941C28.0219 10.3426 27.5719 10.1098 27.7297 9.46289C27.7464 9.39102 27.7193 9.3457 27.6484 9.32695C27.4214 9.26966 27.2917 9.08737 27.2594 8.78008C27.3083 8.75925 27.349 8.78841 27.3813 8.86758C27.4 8.91133 27.4182 8.94727 27.4359 8.97539C27.4532 9.00333 27.4797 9.02435 27.5108 9.03479C27.542 9.04524 27.5758 9.04445 27.6064 9.03257C27.637 9.0207 27.6625 8.99848 27.6785 8.96976C27.6944 8.94105 27.6998 8.90767 27.6938 8.87539C27.551 8.14206 27.2953 7.66914 26.9266 7.45664C26.7839 7.29727 26.7 7.0905 26.675 6.83633C26.6708 6.78529 26.65 6.74258 26.6125 6.7082C26.4927 6.59674 26.4141 6.47018 26.3766 6.32852C26.4526 6.31081 26.4979 6.30977 26.5125 6.32539C26.6187 6.43477 26.6755 6.41289 26.6828 6.25977C26.7016 5.89414 26.6344 5.23164 26.3297 4.9707C26.1234 4.79362 25.9854 4.83477 25.9156 5.09414L25.4594 3.59258C25.4219 3.46758 25.3651 3.35143 25.2891 3.24414C24.8078 2.57331 24.6089 1.83216 24.6922 1.0207C24.6984 0.960287 24.7312 0.924349 24.7906 0.912891L25.5312 0.769141C25.5937 0.757682 25.6432 0.725912 25.6797 0.673828L25.8031 0.500391C25.8302 0.460807 25.8677 0.436328 25.9156 0.426953C26.2016 0.372265 26.4656 0.308203 26.7125 0.141015C26.8917 0.0222651 27.1078 -0.0214843 27.3609 0.00976569C27.4109 0.0160157 27.4521 0.0389327 27.4844 0.0785161C27.5604 0.173308 27.6167 0.282161 27.6531 0.405078C27.7635 0.770703 27.8245 1.1082 27.8359 1.41758C27.838 1.47383 27.8583 1.52227 27.8969 1.56289C28.0313 1.70508 28.1047 1.80039 28.1797 1.98789C28.6328 3.1181 29.0432 4.22591 29.4109 5.31133C29.4641 5.46602 29.4172 5.60352 29.4953 5.76445C29.7047 6.1957 29.9344 6.61289 30.1078 7.0582C30.5151 8.1082 30.8578 9.028 31.1359 9.81758C31.2078 10.0207 31.2672 10.2384 31.3141 10.4707C31.3245 10.5228 31.3484 10.5681 31.3859 10.6066C31.4401 10.6639 31.463 10.7322 31.4547 10.8113C31.4474 10.8697 31.4604 10.9233 31.4937 10.9723C31.6469 11.2014 31.7422 11.4691 31.7797 11.7754C31.7859 11.8275 31.8151 11.8587 31.8672 11.8691C31.8849 11.8733 31.8995 11.8816 31.9109 11.8941C31.9297 11.9139 31.9411 11.9374 31.9453 11.9645C31.9797 12.1863 32.0229 12.3999 32.075 12.6051C32.0917 12.6676 32.126 12.7176 32.1781 12.7551C32.25 12.8082 32.2807 12.8785 32.2703 12.966C32.263 13.0285 32.2891 13.0702 32.3484 13.091C32.363 13.0962 32.3755 13.104 32.3859 13.1145C32.4151 13.1426 32.4214 13.1749 32.4047 13.2113C32.3839 13.2592 32.3495 13.2936 32.3016 13.3145C32.2495 13.3374 32.2458 13.3671 32.2906 13.4035C32.6469 13.6973 32.3672 13.9723 32.3797 14.3395Z" fill="#1B1D1E"/>
<path d="M47.0625 0.731658L47.0484 1.09104C47.0464 1.14833 47.0714 1.18791 47.1234 1.20978C47.2557 1.26499 47.3505 1.35979 47.4078 1.49416C47.4276 1.53896 47.4349 1.58635 47.4297 1.63635C47.4089 1.83739 47.4719 2.01239 47.6187 2.16135L47.1766 3.25978C47.0411 3.27332 46.9839 3.33271 47.0047 3.43791C47.0214 3.52646 47.0531 3.57854 47.1 3.59416C47.0385 3.80979 46.9578 4.02384 46.8578 4.23634C46.7099 4.54988 46.5552 4.94884 46.3938 5.43322C46.3646 5.52072 46.3109 5.60145 46.2328 5.67541C46.1911 5.71395 46.1635 5.76082 46.15 5.81603C45.9641 6.52853 45.7906 7.25041 45.4187 7.88478C45.2125 8.23478 45.0531 8.61812 44.9406 9.03479C44.8896 9.22229 44.8094 9.39833 44.7 9.56291C44.5594 9.77385 44.4047 10.0098 44.3781 10.2691C44.3391 10.6379 44.3391 11.1441 44.1312 11.4598C43.9406 11.7488 43.925 12.0957 43.7719 12.3832C43.5344 12.8301 43.0922 13.4676 43.1437 13.9707C43.15 14.027 43.1266 14.0655 43.0734 14.0863C42.8188 14.191 42.4203 14.2098 42.2375 14.427C42.1894 14.4842 42.1244 14.5248 42.0519 14.5427C41.9795 14.5607 41.9033 14.5552 41.8344 14.527C41.2385 14.2863 40.6818 14.1764 40.1641 14.1973L40.1601 14.1966L40.157 14.194L40.1556 14.1903L40.1562 14.1863C40.1698 14.1624 40.1672 14.1405 40.1484 14.1207C40.1422 14.1134 40.1344 14.1087 40.125 14.1066C39.9542 14.0702 39.8786 13.9629 39.8984 13.7848C39.9328 13.4691 39.9422 12.9941 40.1391 12.7504C40.1891 12.6869 40.2302 12.6176 40.2625 12.5426C40.5927 11.7561 40.8979 10.9796 41.1781 10.2129C41.2078 10.1301 41.2937 10.0629 41.3125 9.98009C41.3698 9.71342 41.4526 9.45042 41.5609 9.19104C41.6651 8.94208 41.7568 8.68375 41.8359 8.41604C42.0005 7.86083 42.2021 7.33843 42.4406 6.84885C42.8469 6.01447 43.2323 5.04989 43.5969 3.9551C43.9167 2.99989 44.1536 2.14208 44.3078 1.38165C44.4 0.931659 44.625 0.126973 45.2344 0.189473C45.4906 0.215514 45.7583 0.261868 46.0375 0.328535C46.0969 0.343118 46.1406 0.378014 46.1688 0.433222C46.1969 0.486347 46.2766 0.536346 46.3344 0.539471C46.6115 0.553013 46.8542 0.617075 47.0625 0.731658Z" fill="#1B1D1E"/>
<path d="M47.0625 0.731628L47.4984 0.794129C47.5599 0.802462 47.6099 0.831109 47.6484 0.880067C47.7672 1.0311 47.8588 1.20506 47.9234 1.40194C47.9432 1.46235 47.9281 1.51131 47.8781 1.54881C47.7083 1.67902 47.6219 1.88319 47.6187 2.16131C47.4719 2.01235 47.4088 1.83735 47.4297 1.63631C47.4349 1.58631 47.4276 1.53892 47.4078 1.49412C47.3505 1.35975 47.2557 1.26496 47.1234 1.20975C47.0713 1.18788 47.0463 1.14829 47.0484 1.091L47.0625 0.731628Z" fill="#EE3A38"/>
<path d="M47.1766 3.25977C47.1224 3.3681 47.0969 3.47956 47.1 3.59414C47.0531 3.57852 47.0214 3.52643 47.0047 3.43789C46.9839 3.33268 47.0411 3.27331 47.1766 3.25977Z" fill="#EE3A38"/>
<path d="M26.3765 6.3285L25.9156 5.09413C25.9854 4.83475 26.1234 4.7936 26.3297 4.97069C26.6344 5.23162 26.7016 5.89412 26.6828 6.25975C26.6755 6.41287 26.6187 6.43475 26.5125 6.32537C26.4979 6.30975 26.4526 6.31079 26.3765 6.3285Z" fill="#EE3A38"/>
<path d="M26.9266 7.45667C27.2953 7.66917 27.551 8.14208 27.6938 8.87541C27.6998 8.90768 27.6944 8.94108 27.6785 8.96979C27.6625 8.9985 27.637 9.02072 27.6064 9.0326C27.5758 9.04448 27.542 9.04525 27.5108 9.03481C27.4797 9.02436 27.4532 9.00336 27.4359 8.97542C27.4182 8.94729 27.4 8.91136 27.3813 8.86761C27.349 8.78844 27.3083 8.75927 27.2594 8.78011C27.001 8.3624 26.8901 7.92125 26.9266 7.45667Z" fill="#EE3A38"/>
<path d="M32.3797 14.3395C32.5589 14.2842 32.687 14.3254 32.7641 14.4629C32.772 14.4769 32.7761 14.4927 32.776 14.5087C32.7759 14.5248 32.7716 14.5405 32.7635 14.5544C32.7555 14.5683 32.744 14.5799 32.7301 14.5879C32.7162 14.596 32.7004 14.6003 32.6844 14.6004C31.9052 14.6098 31.1292 14.6124 30.3563 14.6082C29.9344 14.6066 29.6813 14.391 29.3594 14.152C29.1396 13.9905 29.0365 13.8051 29.05 13.5957C29.0635 13.4822 29.1287 13.429 29.2453 13.4363C29.2692 13.4377 29.2924 13.4459 29.3122 13.4599C29.3321 13.474 29.3479 13.4934 29.3578 13.516C29.5339 13.915 29.8 14.1327 30.1563 14.1691C30.551 14.2108 30.9922 14.2415 31.4797 14.2613C31.7839 14.2738 32.0839 14.2999 32.3797 14.3395Z" fill="#EE3A38"/>
<path d="M20.1375 14.327C19.0271 14.4155 17.9208 14.4572 16.8188 14.452C16.8156 14.452 16.5385 14.427 15.9875 14.377C15.7312 14.354 15.4391 14.3603 15.1109 14.3957C14.7339 14.4363 14.0693 14.4264 13.1172 14.366L20.1375 14.327Z" fill="#1B1D1E"/>
<path d="M20.1375 14.327C23.0281 14.302 25.9359 14.2941 28.8609 14.3035C29.0526 14.3035 29.226 14.365 29.3813 14.4879C29.4073 14.6566 29.3771 14.7415 29.2906 14.7426C25.4792 14.7915 21.7297 14.8118 18.0422 14.8035C17.5516 14.8025 16.9823 14.8145 16.3344 14.8395C15.1734 14.8832 14.0312 14.7645 12.8531 14.8113C12.7896 14.8134 12.7547 14.7832 12.7484 14.7207L12.7297 14.5066C12.8443 14.3983 12.9734 14.3514 13.1172 14.366C14.0693 14.4264 14.7339 14.4363 15.1109 14.3957C15.4391 14.3603 15.7312 14.354 15.9875 14.377C16.5385 14.427 16.8156 14.452 16.8188 14.452C17.9208 14.4572 19.0271 14.4155 20.1375 14.327Z" fill="#EE3A38"/>
<path d="M39.5578 14.7895L33.4359 14.6926C33.3839 14.6926 33.3656 14.7171 33.3813 14.766C33.4844 15.1087 33.5052 15.4181 33.4438 15.6941C33.2375 15.3832 32.8328 14.7832 32.975 14.4395C33.0073 14.3603 33.0656 14.3207 33.15 14.3207C35.1625 14.3217 37.0563 14.3217 38.8313 14.3207C39.0375 14.3207 39.2448 14.3598 39.4531 14.4379C39.5073 14.4587 39.5615 14.4577 39.6156 14.4348L39.8453 14.3348C39.9141 14.3046 39.9255 14.3191 39.8797 14.3785L39.5578 14.7895Z" fill="#EE3A38"/>
<path d="M60.6109 14.3566L71.8281 14.4035C71.8948 14.4035 71.9427 14.4337 71.9719 14.4941L72.0828 14.7191C72.1078 14.7712 72.0911 14.7973 72.0328 14.7973C63.3943 14.8212 54.8359 14.8119 46.3578 14.7691C45.4234 14.7645 44.4969 14.6473 43.5641 14.7254C43.3672 14.7426 43.2313 14.8316 43.05 14.8535C42.9802 14.8629 42.9682 14.841 43.0141 14.7879C43.0526 14.7421 43.1005 14.7244 43.1578 14.7348C43.2193 14.7452 43.2589 14.7202 43.2766 14.6598C43.2984 14.5848 43.288 14.4822 43.2453 14.352L60.6109 14.3566Z" fill="#EE3A38"/>
<path d="M60.6109 14.3566C64.3088 14.3244 68.0057 14.316 71.7016 14.3316C71.9437 14.3332 72.1 14.4363 72.2844 14.5707C72.3375 14.6093 72.3875 14.6056 72.4344 14.5598L72.6109 14.3863C72.6547 14.3426 72.7026 14.3384 72.7547 14.3738C73.0224 14.5582 73.2479 14.7837 73.4312 15.0504C73.4604 15.0941 73.4755 15.1421 73.4765 15.1941C73.5432 18.7379 73.4963 22.2801 73.3359 25.8207C73.3234 26.1207 73.225 26.441 73.225 26.7723C73.2573 38.4879 73.2453 51.466 73.1891 65.7067C73.1859 66.341 72.8891 66.7509 72.2984 66.9363C72.2747 66.9438 72.2526 66.9561 72.2335 66.9724C72.2145 66.9888 72.1988 67.009 72.1875 67.0316C71.9984 67.4223 71.4703 68.2285 70.9422 68.0676C70.8838 68.0499 70.8552 68.0712 70.8562 68.1316C70.8573 68.1837 70.874 68.2322 70.9062 68.277C70.9396 68.3249 70.9281 68.3561 70.8719 68.3707C70.8573 68.3749 70.8422 68.3744 70.8266 68.3691C70.7932 68.3566 70.7682 68.366 70.7515 68.3973C70.5568 68.7775 70.2891 69.0858 69.9484 69.3223C69.7266 69.4775 69.5115 69.6697 69.3031 69.8988C68.7552 70.5009 68.2026 71.0733 67.6453 71.616C67.4078 71.8457 67.275 72.1395 67.0312 72.3613C66.6104 72.7415 66.1802 73.1113 65.7406 73.4707C65.6547 73.5395 65.6406 73.5801 65.6016 73.677C65.5755 73.7436 65.5302 73.7921 65.4656 73.8223C65.4031 73.8525 65.3641 73.9004 65.3484 73.966C65.3307 74.0452 65.2807 74.0858 65.1984 74.0879C65.1099 74.091 65.0286 74.1155 64.9547 74.1613C64.913 74.1874 64.8823 74.2228 64.8625 74.2676C64.8312 74.3395 64.7917 74.3994 64.7437 74.4473C64.6542 74.5379 64.6234 74.5212 64.6516 74.3973C64.6953 74.2098 64.638 74.1061 64.4797 74.0863C64.4255 74.0801 64.3974 74.0499 64.3953 73.9957C64.3099 72.0374 64.2698 69.9113 64.275 67.6176C64.276 67.4468 64.2875 67.2806 64.3094 67.1191C64.3437 66.8681 64.3609 66.7046 64.3609 66.6285C64.3651 53.4556 64.3724 40.2827 64.3828 27.1098C64.3838 26.8046 64.3432 26.5025 64.2609 26.2035C64.2474 26.1566 64.2167 26.129 64.1687 26.1207L63.4937 26.0066C63.424 25.9952 63.3651 26.0155 63.3172 26.0676L63.1687 26.2301C63.1302 26.2718 63.0828 26.2921 63.0265 26.291C62.1281 26.277 61.3469 26.416 60.4562 26.0645C60.4354 26.0561 60.4141 26.052 60.3922 26.052C60.3766 26.052 60.3609 26.0535 60.3453 26.0566C60.3099 26.0639 60.3083 26.0764 60.3406 26.0941C60.3771 26.1139 60.3917 26.1421 60.3844 26.1785C60.375 26.2327 60.3427 26.2592 60.2875 26.2582C58.0187 26.1957 55.8234 26.1363 53.5266 26.1348C40.0807 26.1244 26.3104 26.1301 12.2156 26.152C10.9594 26.154 9.33801 26.1973 7.35155 26.2816C7.26718 26.2848 7.24009 26.2494 7.2703 26.1754C7.27759 26.1577 7.27967 26.1384 7.27655 26.1176C7.2703 26.0655 7.24166 26.0327 7.19061 26.0191C6.99374 25.9691 6.8703 26.0191 6.8203 26.1691C6.80364 26.2191 6.76926 26.2405 6.71718 26.2332C6.2328 26.1728 5.77551 26.1296 5.3453 26.1035C4.60051 26.0566 3.63437 26.0592 2.44687 26.1113C2.45416 26.0124 2.41145 25.9181 2.31874 25.8285C2.28196 25.7928 2.256 25.7485 2.24374 25.7004C2.19061 25.491 2.26718 25.3311 2.47343 25.2207C2.80259 25.0457 3.05416 24.8322 3.22812 24.5801C3.36041 24.3884 3.51718 24.2098 3.69843 24.0441C4.05051 23.7212 4.37968 23.3962 4.68593 23.0691C5.54218 22.1551 6.49218 21.3035 7.36249 20.4285C7.43541 20.3556 7.49009 20.2733 7.52655 20.1816C7.63072 19.915 7.56822 19.8139 7.33905 19.8785L7.92655 19.2535C7.96405 19.3994 7.95207 19.5254 7.89062 19.6316C7.87395 19.6608 7.87759 19.6869 7.90155 19.7098C7.91301 19.7202 7.92551 19.7244 7.93905 19.7223C7.97239 19.7171 7.99895 19.7014 8.01874 19.6754C8.11561 19.5566 8.20624 19.428 8.29062 19.2895C8.32082 19.2405 8.36301 19.2056 8.41718 19.1848C8.59009 19.1181 8.70155 19.0629 8.75155 19.0191C9.33801 18.4921 9.83749 17.9275 10.25 17.3254C10.276 16.9796 10.4026 16.6905 10.6297 16.4582C11.3703 15.702 11.8516 15.2191 12.0734 15.0098C12.1943 14.8962 12.413 14.7285 12.7297 14.5066L12.7484 14.7207C12.7547 14.7832 12.7896 14.8134 12.8531 14.8113C14.0312 14.7645 15.1734 14.8832 16.3344 14.8395C16.9823 14.8145 17.5516 14.8025 18.0422 14.8035C21.7297 14.8119 25.4792 14.7915 29.2906 14.7426C29.3771 14.7415 29.4073 14.6566 29.3812 14.4879C29.6365 14.7254 29.8542 15.0525 30.0344 15.4691C30.2469 15.9587 30.3307 16.4186 30.2859 16.8488C30.2797 16.8999 30.301 16.9343 30.35 16.952L30.4547 16.9879C30.4789 16.9966 30.5007 17.011 30.5183 17.0297C30.536 17.0484 30.5489 17.071 30.5562 17.0957C30.7073 17.6165 30.8646 18.1431 31.0281 18.6754C31.1062 18.9285 31.1406 19.1832 31.1312 19.4457C31.1304 19.4766 31.1389 19.5069 31.1556 19.5329C31.1724 19.5588 31.1965 19.5791 31.225 19.591L31.3187 19.6285C31.3729 19.6504 31.4073 19.69 31.4219 19.7473C31.675 20.7613 31.6953 21.341 32.8672 21.6598C32.9318 21.6775 32.9713 21.6535 32.9859 21.5879C33.0062 21.4988 33.0703 21.416 33.15 21.3723C33.5156 21.1691 33.8979 21.1004 34.2969 21.166C34.3562 21.1764 34.4015 21.1556 34.4328 21.1035C34.4505 21.0754 34.4724 21.0499 34.4984 21.027C34.5387 20.9927 34.5898 20.9744 34.6422 20.9754L34.9672 20.9785C35.137 20.9796 35.2005 20.8978 35.1578 20.7332C35.063 20.3655 35.0047 20.0046 34.9828 19.6504C34.9797 19.6066 34.9672 19.5665 34.9453 19.5301C34.9088 19.4718 34.874 19.4415 34.8406 19.4395C34.7929 19.4371 34.7468 19.4201 34.7081 19.3906C34.6695 19.3611 34.64 19.3205 34.6234 19.2738C34.3661 18.5353 34.1172 17.802 33.8765 17.0738C33.839 16.9603 33.8219 16.841 33.825 16.716C33.8271 16.6369 33.7958 16.5723 33.7312 16.5223C33.6833 16.4848 33.651 16.4363 33.6344 16.377L33.4437 15.6941C33.5052 15.4181 33.4844 15.1087 33.3812 14.766C33.3656 14.7171 33.3838 14.6926 33.4359 14.6926L39.5578 14.7895L39.4656 14.952C39.4406 14.9957 39.4042 15.0249 39.3562 15.0395C39.2656 15.0686 39.1812 15.1124 39.1031 15.1707C39.0598 15.2039 39.0304 15.2517 39.0203 15.3051C38.9411 15.7499 38.85 16.1988 38.7469 16.652C38.6812 16.9363 38.5865 17.1665 38.4625 17.3426C38.2656 17.6238 38.0859 17.9348 38 18.2676C37.8458 18.8624 37.6281 19.4369 37.3469 19.991C37.3171 20.0506 37.304 20.1172 37.309 20.1837C37.3139 20.2503 37.3367 20.3143 37.375 20.3691C37.4917 20.5369 37.6443 20.6639 37.8328 20.7504C38.5453 21.0785 39.2203 21.4238 40.0125 21.5754C40.0667 21.5858 40.1057 21.566 40.1297 21.516C40.2422 21.2744 40.3958 21.0764 40.5906 20.9223C40.6239 20.8962 40.6411 20.8613 40.6422 20.8176L40.6531 20.2801C40.6535 20.2456 40.6633 20.2119 40.6815 20.1824C40.6996 20.153 40.7255 20.129 40.7562 20.1129C40.8719 20.0535 40.937 19.9629 40.9516 19.841C40.9608 19.7666 40.9917 19.6965 41.0406 19.6395C41.1135 19.5551 41.164 19.4561 41.1922 19.3426C41.263 19.054 41.3776 18.7796 41.5359 18.5191C41.6172 18.3858 41.6693 18.2483 41.6922 18.1066C41.7281 17.891 41.8437 17.6848 41.8516 17.4723C41.8557 17.366 41.9088 17.2895 42.0109 17.2426C42.0424 17.2282 42.0697 17.206 42.0902 17.1781C42.1107 17.1502 42.1238 17.1176 42.1281 17.0832C42.1573 16.8509 42.2323 16.6353 42.3531 16.4363C42.3802 16.3915 42.3906 16.3431 42.3844 16.291C42.35 16.0046 42.4224 15.7306 42.6016 15.4691C42.6338 15.4223 42.6484 15.3702 42.6453 15.3129C42.6172 14.766 42.8172 14.4457 43.2453 14.352C43.288 14.4822 43.2984 14.5848 43.2766 14.6598C43.2588 14.7202 43.2193 14.7452 43.1578 14.7348C43.1005 14.7244 43.0526 14.7421 43.0141 14.7879C42.9682 14.841 42.9802 14.8629 43.05 14.8535C43.2312 14.8316 43.3672 14.7426 43.564 14.7254C44.4969 14.6473 45.4234 14.7645 46.3578 14.7691C54.8359 14.8119 63.3943 14.8212 72.0328 14.7973C72.0911 14.7973 72.1078 14.7712 72.0828 14.7191L71.9719 14.4941C71.9427 14.4337 71.8948 14.4035 71.8281 14.4035L60.6109 14.3566ZM9.2078 25.9303C9.20785 25.9125 9.15391 25.8952 9.05784 25.8823C8.96177 25.8693 8.83145 25.8618 8.69554 25.8613C8.62823 25.8611 8.56157 25.8626 8.49938 25.8658C8.43718 25.8689 8.38067 25.8737 8.33305 25.8798C8.28544 25.8858 8.24766 25.8931 8.22188 25.9012C8.1961 25.9092 8.18283 25.9179 8.1828 25.9267C8.18276 25.9446 8.2367 25.9618 8.33276 25.9748C8.42883 25.9877 8.55916 25.9952 8.69507 25.9957C8.76238 25.9959 8.82903 25.9944 8.89123 25.9913C8.95342 25.9881 9.00994 25.9834 9.05755 25.9773C9.10516 25.9712 9.14294 25.9639 9.16872 25.9559C9.1945 25.9478 9.20778 25.9391 9.2078 25.9303ZM17.3172 25.9494C17.3172 25.9418 17.3157 25.9342 17.3127 25.9272C17.3098 25.9202 17.3056 25.9139 17.3002 25.9085C17.2948 25.9031 17.2884 25.8989 17.2814 25.896C17.2744 25.8931 17.2669 25.8916 17.2593 25.8916L16.1749 25.8935C16.1596 25.8936 16.1449 25.8997 16.134 25.9105C16.1232 25.9214 16.1172 25.9361 16.1172 25.9514V25.9577C16.1172 25.9653 16.1187 25.9728 16.1216 25.9798C16.1245 25.9868 16.1288 25.9932 16.1342 25.9986C16.1396 26.0039 16.1459 26.0082 16.153 26.0111C16.16 26.0139 16.1675 26.0154 16.1751 26.0154L17.2595 26.0135C17.2748 26.0135 17.2895 26.0074 17.3003 25.9965C17.3111 25.9856 17.3172 25.9709 17.3172 25.9556V25.9494ZM22.7203 25.9503C22.7203 25.9427 22.7188 25.9352 22.7159 25.9282C22.7129 25.9212 22.7087 25.9148 22.7033 25.9095C22.6979 25.9041 22.6915 25.8999 22.6845 25.897C22.6775 25.8941 22.67 25.8926 22.6624 25.8926L20.8874 25.8957C20.8798 25.8957 20.8723 25.8972 20.8653 25.9001C20.8583 25.9031 20.8519 25.9073 20.8465 25.9127C20.8412 25.9181 20.8369 25.9245 20.834 25.9315C20.8311 25.9385 20.8297 25.946 20.8297 25.9536V25.9567C20.8297 25.9643 20.8312 25.9718 20.8341 25.9789C20.837 25.9859 20.8413 25.9922 20.8467 25.9976C20.8521 26.0029 20.8584 26.0072 20.8655 26.0101C20.8725 26.013 20.88 26.0145 20.8876 26.0144L22.6626 26.0113C22.6702 26.0113 22.6777 26.0098 22.6847 26.0069C22.6917 26.004 22.6981 25.9997 22.7034 25.9943C22.7088 25.989 22.7131 25.9826 22.7159 25.9756C22.7188 25.9685 22.7203 25.961 22.7203 25.9534V25.9503ZM26.2015 25.9505C26.2015 25.9437 26.2002 25.937 26.1975 25.9308C26.1949 25.9245 26.1911 25.9188 26.1863 25.9141C26.1815 25.9093 26.1758 25.9055 26.1695 25.903C26.1633 25.9004 26.1566 25.8991 26.1498 25.8991L24.5123 25.9048C24.4986 25.9049 24.4855 25.9103 24.4759 25.92C24.4663 25.9298 24.4609 25.9429 24.4609 25.9566V25.9628C24.461 25.9696 24.4623 25.9763 24.4649 25.9825C24.4676 25.9888 24.4714 25.9944 24.4762 25.9992C24.481 26.004 24.4867 26.0078 24.4929 26.0103C24.4992 26.0129 24.5059 26.0142 24.5127 26.0142L26.1502 26.0085C26.1638 26.0084 26.1769 26.0029 26.1866 25.9932C26.1962 25.9835 26.2016 25.9704 26.2015 25.9567V25.9505ZM27.975 25.9363C27.8323 25.9103 27.6823 25.9035 27.525 25.916C27.3458 25.9306 27.3422 25.9634 27.5141 26.0145C27.5995 26.0405 27.7526 26.0353 27.9734 25.9988C28.0943 25.978 28.0948 25.9572 27.975 25.9363ZM30.9 25.9098L29.9266 25.8973C29.912 25.8973 29.9047 25.9046 29.9047 25.9191L29.9062 25.9723C29.9066 25.9844 29.9118 25.996 29.9205 26.0044C29.9293 26.0129 29.9409 26.0176 29.9531 26.0176L30.9125 26.0004C30.9146 26.0004 30.9156 25.9994 30.9156 25.9973L30.9312 25.9551C30.9427 25.9259 30.9323 25.9108 30.9 25.9098ZM32.4109 25.9051L31.7922 25.8957C31.7786 25.8957 31.7708 25.9025 31.7687 25.916L31.7609 25.9582C31.7536 25.9988 31.7703 26.0186 31.8109 26.0176L32.4359 26.0004C32.4463 26.0004 32.4515 25.9978 32.4515 25.9926L32.4531 25.9488C32.4531 25.9207 32.439 25.9061 32.4109 25.9051ZM60.0906 26.0754C60.1917 26.0535 60.1922 26.0301 60.0922 26.0051C59.9474 25.9686 59.8042 25.9728 59.6625 26.0176C59.5864 26.0415 59.5875 26.0613 59.6656 26.077C59.8062 26.1061 59.9479 26.1056 60.0906 26.0754Z" fill="#1B1D1E"/>
<path d="M10.25 17.3254C9.8375 17.9275 9.33802 18.4921 8.75156 19.0191C8.70156 19.0629 8.59011 19.1181 8.41719 19.1848C8.36302 19.2056 8.32084 19.2405 8.29063 19.2895C8.20625 19.428 8.11563 19.5566 8.01875 19.6754C7.99896 19.7014 7.9724 19.7171 7.93907 19.7223C7.92552 19.7244 7.91302 19.7202 7.90156 19.7098C7.8776 19.6869 7.87396 19.6608 7.89063 19.6316C7.95209 19.5254 7.96406 19.3994 7.92656 19.2535C8.43906 18.641 9.06719 18.1785 9.5875 17.5645C9.77292 17.3457 9.99375 17.266 10.25 17.3254Z" fill="#EE3A38"/>
<path d="M2.44689 26.1113C2.34376 26.1822 2.21459 26.1968 2.05939 26.1551C2.00314 26.1395 1.96667 26.104 1.95001 26.0488C1.90001 25.8749 1.79584 25.7514 1.63751 25.6785C1.54167 25.6337 1.54532 25.5999 1.64845 25.577C1.80782 25.5405 1.88491 25.4473 1.8797 25.2973C1.87762 25.2244 1.90366 25.1645 1.95782 25.1176C2.91512 24.2801 3.83595 23.3968 4.72032 22.4676C5.53282 21.6145 6.49376 20.7738 7.33907 19.8785C7.56824 19.8139 7.63074 19.915 7.52657 20.1816C7.49011 20.2733 7.43543 20.3556 7.36251 20.4285C6.4922 21.3035 5.5422 22.1551 4.68595 23.0691C4.3797 23.3962 4.05053 23.7212 3.69845 24.0441C3.5172 24.2098 3.36043 24.3884 3.22814 24.5801C3.05418 24.8322 2.80261 25.0457 2.47345 25.2207C2.2672 25.3311 2.19063 25.491 2.24376 25.7004C2.25602 25.7485 2.28198 25.7928 2.31876 25.8285C2.41147 25.9181 2.45418 26.0124 2.44689 26.1113Z" fill="#EE3A38"/>
<path d="M58.5765 29.616L58.5531 29.8317C58.5505 29.8558 58.5398 29.8783 58.5228 29.8956C58.5058 29.9129 58.4834 29.9239 58.4594 29.927C57.7635 30.0124 57.1854 30.0134 56.725 29.9301C56.3823 29.8686 56.0411 29.852 55.7016 29.8801C55.3849 29.9072 55.0781 29.9207 54.7812 29.9207C36.8677 29.9197 18.9568 29.9202 1.04842 29.9223C0.867174 29.9223 0.656237 29.9504 0.4828 30.002C0.422383 30.0197 0.38332 29.9978 0.365612 29.9363C0.340612 29.853 0.2953 29.7962 0.229675 29.766L0.318734 29.5629C0.340609 29.5139 0.377592 29.4832 0.429675 29.4707C0.612488 29.427 0.749984 29.3441 0.943734 29.3441C17.1396 29.3348 33.3062 29.3363 49.4437 29.3488C51.2062 29.3504 53.1515 29.4551 54.7969 29.4613C55.6312 29.4645 56.4656 29.4655 57.3 29.4645C57.3552 29.4645 57.4062 29.4785 57.4531 29.5066C57.7547 29.6879 58.2359 29.6223 58.5765 29.616Z" fill="#EE3A38"/>
<path d="M58.5766 29.616L60.4828 29.6176C60.5391 29.6176 60.5901 29.6343 60.6359 29.6676C60.7516 29.7499 60.8818 29.7837 61.0266 29.7691C61.0806 29.7641 61.1344 29.7804 61.1766 29.8145C61.3088 29.9207 61.3557 30.0692 61.3172 30.2598C61.3068 30.3119 61.275 30.3442 61.2219 30.3567L61.1531 30.3723C61.1031 30.3837 61.0776 30.4155 61.0766 30.4676L61.0719 30.8988C61.0719 30.9634 61.1031 31.0025 61.1656 31.016L61.2328 31.0301C61.2557 31.0348 61.2763 31.0476 61.2908 31.0662C61.3054 31.0847 61.313 31.1079 61.3125 31.1316L61.2594 32.8676C61.2583 32.9249 61.2432 32.9775 61.2141 33.0254C61.1703 33.0994 61.1463 33.179 61.1422 33.2645C61.0995 34.229 61.0703 35.2155 61.0547 36.2238C61.0536 36.3509 60.9906 36.4108 60.8656 36.4035C60.8522 36.4028 60.8388 36.4054 60.8267 36.4112C60.8147 36.4169 60.8043 36.4257 60.7966 36.4365C60.7889 36.4473 60.7841 36.4599 60.7828 36.473C60.7815 36.4861 60.7837 36.4993 60.7891 36.5113C60.8151 36.5697 60.8625 36.5999 60.9312 36.602C61 36.603 61.0365 36.6379 61.0406 36.7067C61.0552 36.9483 61.0625 37.1869 61.0625 37.4223C61.0854 53.6827 61.063 63.9692 60.9953 68.2817C60.9578 70.6244 60.9344 72.9676 60.925 75.3113C60.925 75.3415 60.9172 75.3692 60.9016 75.3942L60.8687 75.4442C60.8302 75.5067 60.8479 75.5405 60.9219 75.5457C60.9479 75.5468 60.9724 75.5535 60.9953 75.566C61.0307 75.5848 61.0557 75.6139 61.0703 75.6535C61.0932 75.716 61.0823 75.7686 61.0375 75.8113C61.0052 75.8426 60.9557 75.8582 60.8891 75.8582C40.8088 75.8572 20.6906 75.8572 0.534367 75.8582C0.504158 75.8582 0.484888 75.8436 0.476555 75.8145C0.465097 75.7738 0.456245 75.7254 0.449995 75.6692C0.442703 75.6119 0.426553 75.5785 0.401553 75.5692C0.367178 75.5556 0.323429 75.5759 0.270304 75.6301C0.422387 75.2905 0.498432 74.9764 0.498432 74.6879C0.515099 66.5775 0.488535 58.4676 0.418743 50.3582C0.414056 49.8332 0.462492 49.1988 0.451554 48.6192C0.445304 48.2473 0.399993 47.8702 0.315618 47.4879C0.245826 47.1702 0.224994 46.8483 0.253119 46.5223C0.280202 46.2077 0.293223 45.8947 0.292181 45.5832C0.283848 43.4186 0.294784 41.3197 0.324992 39.2863C0.331242 38.8379 0.424994 38.3863 0.429682 37.9285C0.44739 36.1275 0.450515 34.2827 0.439056 32.3942C0.434369 31.7567 0.368742 31.1223 0.44218 30.477C0.44514 30.4522 0.4423 30.4272 0.433887 30.4039C0.425475 30.3805 0.411725 30.3595 0.393743 30.3426L0.126556 30.0895C0.139056 29.9082 0.173432 29.8004 0.229682 29.766C0.295307 29.7962 0.340619 29.853 0.365619 29.9363C0.383327 29.9978 0.42239 30.0197 0.482806 30.002C0.656244 29.9504 0.86718 29.9223 1.04843 29.9223C18.9568 29.9202 36.8677 29.9197 54.7812 29.9207C55.0781 29.9207 55.3849 29.9072 55.7016 29.8801C56.0411 29.852 56.3823 29.8686 56.725 29.9301C57.1854 30.0134 57.7635 30.0124 58.4594 29.927C58.4834 29.9239 58.5058 29.9129 58.5228 29.8956C58.5398 29.8783 58.5505 29.8558 58.5531 29.8317L58.5766 29.616ZM42.4141 34.641C41.4661 34.6223 40.55 34.627 39.6656 34.6551C39.601 34.6572 39.5474 34.6817 39.5047 34.7285C39.4713 34.765 39.4297 34.7869 39.3797 34.7942C39.0818 34.8389 38.7917 34.8634 38.5094 34.8676C36.9531 34.8905 35.026 34.8895 32.7281 34.8645C29.3417 34.827 25.8531 34.8275 22.2625 34.866C20.6542 34.8827 18.5588 35.0082 15.9766 35.2426C15.9047 35.2499 15.8568 35.2874 15.8328 35.3551L15.7625 35.5582C15.7385 35.627 15.6922 35.6728 15.6234 35.6957C15.2141 35.8311 14.8391 35.978 14.4984 36.1363C12.7849 36.9322 11.4646 38.1431 10.5375 39.7691C9.85937 40.9577 9.40989 42.1598 9.18906 43.3754C9.1401 43.641 9.11822 43.9218 9.12343 44.2176C9.13749 44.9738 8.99687 45.741 8.92187 46.4973C8.87395 46.9869 8.85051 47.4587 8.85156 47.9129C8.85676 50.1358 8.90155 53.2264 8.98593 57.1848C9.01093 58.3379 9.17916 59.3233 9.49062 60.141C9.64843 60.5535 9.59999 60.9723 9.75468 61.3629C10.1963 62.4858 10.7953 63.4108 11.5516 64.1379C12.875 65.4113 14.4109 66.3317 16.2422 66.7395C17.2161 66.9561 18.2062 67.065 19.2125 67.066C27.9365 67.0712 36.5062 67.0718 44.9219 67.0676C45.6677 67.0676 46.2359 67.0509 46.6266 67.0176C48.0469 66.8957 49.3844 66.5707 50.6797 65.9254C50.9984 65.766 51.3062 65.5587 51.6031 65.3035C51.9177 65.0317 52.226 64.7738 52.5281 64.5301C52.8109 64.3035 52.9906 63.9723 53.3266 63.8129C53.3835 63.7855 53.4304 63.7413 53.4609 63.6863C53.6599 63.3218 53.8573 62.9535 54.0531 62.5817C54.1812 62.3363 54.3953 62.1957 54.5297 61.9582C55.2703 60.6488 55.6437 59.1889 55.65 57.5785C55.6667 53.5973 55.674 49.6155 55.6719 45.6332C55.6703 44.491 55.5547 43.5473 55.3187 42.5004C55.2104 42.0171 55.0047 41.4447 54.7016 40.7832C53.8328 38.8843 52.5505 37.4067 50.8547 36.3504C49.0344 35.2176 46.8906 34.9707 44.75 34.952C44.3177 34.9478 43.8797 34.9181 43.4359 34.8629C43.0766 34.8192 42.7953 34.6488 42.4141 34.641Z" fill="#1B1D1E"/>
<path d="M0.126562 30.0895L0.393748 30.3426C0.411731 30.3595 0.425481 30.3805 0.433893 30.4039C0.442306 30.4272 0.445146 30.4522 0.442185 30.477C0.368748 31.1223 0.434375 31.7566 0.439062 32.3941C0.45052 34.2827 0.447396 36.1275 0.429688 37.9285C0.425 38.3863 0.331248 38.8379 0.324998 39.2863C0.29479 41.3197 0.283853 43.4186 0.292187 45.5832C0.293228 45.8947 0.280208 46.2077 0.253124 46.5223C0.224999 46.8483 0.245832 47.1702 0.315623 47.4879C0.399998 47.8702 0.44531 48.2473 0.45156 48.6191C0.462498 49.1988 0.414061 49.8332 0.418749 50.3582C0.488541 58.4676 0.515105 66.5775 0.498438 74.6879C0.498438 74.9764 0.422393 75.2905 0.270309 75.6301C0.0755178 75.4988 -0.0114587 75.2947 0.00937462 75.0176C0.0260413 74.7915 0.0343752 74.6749 0.0343752 74.6676C0.0270835 59.8822 0.015625 45.0973 0 30.3129C0 30.1837 0.0421871 30.1093 0.126562 30.0895Z" fill="#EE3A38"/>
<path d="M42.4141 34.641C42.7953 34.6488 43.0766 34.8191 43.4359 34.8629C43.8797 34.9181 44.3177 34.9478 44.75 34.952C46.8906 34.9707 49.0344 35.2176 50.8547 36.3504C52.5505 37.4067 53.8328 38.8843 54.7016 40.7832C55.0047 41.4447 55.2104 42.0171 55.3188 42.5004C55.5547 43.5473 55.6703 44.491 55.6719 45.6332C55.674 49.6155 55.6667 53.5973 55.65 57.5785C55.6438 59.1889 55.2703 60.6488 54.5297 61.9582C54.3953 62.1957 54.1812 62.3363 54.0531 62.5817C53.8573 62.9535 53.6599 63.3218 53.4609 63.6863C53.4305 63.7413 53.3835 63.7855 53.3266 63.8129C52.9906 63.9723 52.8109 64.3035 52.5281 64.5301C52.226 64.7738 51.9177 65.0317 51.6031 65.3035C51.3063 65.5587 50.9984 65.766 50.6797 65.9254C49.3844 66.5707 48.0469 66.8957 46.6266 67.0176C46.2359 67.0509 45.6677 67.0676 44.9219 67.0676C36.5062 67.0718 27.9365 67.0712 19.2125 67.066C18.2063 67.065 17.2161 66.9561 16.2422 66.7395C14.4109 66.3317 12.875 65.4113 11.5516 64.1379C10.7953 63.4108 10.1964 62.4858 9.75469 61.3629C9.6 60.9723 9.64844 60.5535 9.49063 60.141C9.17917 59.3233 9.01094 58.3379 8.98594 57.1848C8.90156 53.2264 8.85677 50.1358 8.85157 47.9129C8.85052 47.4587 8.87396 46.9869 8.92188 46.4973C8.99688 45.741 9.1375 44.9738 9.12344 44.2176C9.11823 43.9218 9.14011 43.641 9.18907 43.3754C9.4099 42.1598 9.85938 40.9577 10.5375 39.7691C11.4646 38.1431 12.7849 36.9322 14.4984 36.1363C14.8391 35.978 15.2141 35.8311 15.6234 35.6957C15.6922 35.6728 15.7385 35.627 15.7625 35.5582L15.8328 35.3551C15.8568 35.2874 15.9047 35.2499 15.9766 35.2426C18.5589 35.0082 20.6542 34.8827 22.2625 34.866C25.8531 34.8275 29.3417 34.827 32.7281 34.8645C35.026 34.8895 36.9531 34.8905 38.5094 34.8676C38.7917 34.8634 39.0818 34.8389 39.3797 34.7941C39.4297 34.7869 39.4714 34.765 39.5047 34.7285C39.5474 34.6817 39.601 34.6572 39.6656 34.6551C40.55 34.627 41.4661 34.6223 42.4141 34.641ZM39.8266 53.2504C39.9625 54.2801 39.3203 54.9707 39.0281 55.8895C38.8156 56.5613 38.5307 57.315 38.1734 58.1504C37.8484 58.9087 37.5432 59.7171 37.2578 60.5754C36.9391 61.5363 36.2438 62.2348 36.3266 63.3191C36.3297 63.3681 36.3557 63.3941 36.4047 63.3973C36.7318 63.4191 37.0156 63.3629 37.2562 63.2285C38.0656 62.7733 38.9021 62.3759 39.7656 62.0363C39.9391 61.9692 40.0422 61.7754 40.2188 61.6863C41.2375 61.1723 42.1828 60.5801 43.2125 60.066C44.4969 59.4254 45.7641 58.6822 47.0141 57.8363C47.0599 57.8051 47.0755 57.7624 47.0609 57.7082C46.9172 57.1988 46.3625 55.0863 45.5594 55.2879C45.2542 55.3639 44.9589 55.478 44.6734 55.6301C44.6297 55.653 44.6047 55.6889 44.5984 55.7379L44.5891 55.8113C44.5828 55.8645 44.5531 55.8931 44.5 55.8973C43.7656 55.9504 43.4031 56.7879 42.5344 56.427C42.4979 56.4113 42.4766 56.3843 42.4703 56.3457C42.4068 55.9957 42.4609 55.6915 42.6328 55.4332C42.962 54.9395 43.2099 54.4728 43.3766 54.0332C44.2563 51.7207 45.0219 49.2895 46.1719 46.9926C46.1958 46.9436 46.1885 46.8999 46.15 46.8613C46.0667 46.7801 45.9729 46.7197 45.8687 46.6801C45.8208 46.6613 45.7724 46.6593 45.7234 46.6738C45.4578 46.7473 45.1797 46.8207 44.9391 46.952C44.0703 47.4249 43.1875 47.829 42.2906 48.1645C41.6375 48.4098 41.1328 48.8629 40.4391 49.0457C40.413 49.053 40.3927 49.0681 40.3781 49.091L40.3234 49.1785C40.2983 49.2167 40.2593 49.2441 40.2141 49.2551C39.8078 49.352 39.4953 49.6082 39.1188 49.7691C38.4813 50.0441 37.8911 50.3134 37.3484 50.577C36.6375 50.9223 35.9813 51.4254 35.325 51.8801C34.9615 52.1311 34.5938 52.265 34.2219 52.2816C34.1934 52.2829 34.165 52.2779 34.1388 52.2668C34.1125 52.2558 34.089 52.239 34.07 52.2178C34.0511 52.1965 34.037 52.1713 34.0289 52.144C34.0209 52.1167 34.019 52.0879 34.0234 52.0598C34.1625 51.2066 34.5469 50.7176 34.9234 50.0113C35.0188 49.8301 35.2188 49.6957 35.3359 49.5223C36.2318 48.1848 36.9266 47.0837 37.4203 46.2191C37.8109 45.5337 38.2328 44.8119 38.6859 44.0535C38.7859 43.8858 38.8703 43.7046 38.9391 43.5098C38.9437 43.4971 38.9457 43.4836 38.945 43.4701C38.9442 43.4566 38.9408 43.4434 38.9348 43.4312C38.9288 43.4191 38.9204 43.4083 38.9101 43.3995C38.8999 43.3907 38.8879 43.3841 38.875 43.3801C38.6594 43.3129 38.4234 43.2645 38.2047 43.3535C37.6339 43.5858 37.0651 43.752 36.4984 43.852C36.1594 43.9113 35.9344 44.1817 35.6203 44.2598C34.1156 44.6348 32.5969 44.9973 31.1578 45.4816C30.1422 45.8223 29.1047 46.1145 28.0719 46.4879C27.3031 46.7671 26.5208 46.9837 25.725 47.1379C25.4542 47.191 25.3932 47.1014 25.5422 46.8691C26.612 45.2056 27.6182 43.5436 28.5609 41.8832C28.7089 41.6218 28.7234 41.3171 28.6047 40.9692C28.587 40.9171 28.551 40.8921 28.4969 40.8941C28.0479 40.9077 27.6255 40.9468 27.2297 41.0113C25.7474 41.254 24.05 41.5634 22.1375 41.9395C21.5625 42.052 20.9557 42.141 20.3172 42.2066C19.5203 42.2879 18.7302 42.491 17.9469 42.816C17.3438 43.066 17.1297 43.5488 17.1844 44.1613C17.2438 44.8488 17.2234 45.2785 17.75 45.8457C17.9021 46.0093 18.0922 46.0952 18.3203 46.1035C18.7453 46.1181 19.1224 46.0759 19.4516 45.977C20.3797 45.6988 21.3193 45.554 22.2703 45.5426C22.3349 45.5426 22.3646 45.5744 22.3594 45.6379C22.3333 45.9452 22.2427 46.2212 22.0875 46.466C21.55 47.315 21.0828 48.165 20.6859 49.016C20.3031 49.8348 19.8125 50.5348 19.2469 51.2332C18.9833 51.5593 18.8547 51.9525 18.8609 52.4129C18.862 52.4671 18.8891 52.4889 18.9422 52.4785C19.737 52.3264 20.5292 52.1634 21.3187 51.9895C22.0219 51.8348 22.6656 51.5363 23.3656 51.4145C24.3766 51.241 25.2781 50.8379 26.275 50.641C26.3475 50.6269 26.4121 50.5862 26.4563 50.527C26.5177 50.4436 26.5578 50.3478 26.5766 50.2395C26.587 50.179 26.6229 50.1504 26.6844 50.1535C27.3219 50.1869 27.9583 50.0869 28.5937 49.8535C28.6427 49.8358 28.6813 49.8046 28.7094 49.7598C28.7354 49.7181 28.7505 49.6728 28.7547 49.6238C28.7609 49.5499 28.801 49.5145 28.875 49.5176C29.6333 49.552 30.2875 49.4764 30.8375 49.291C31.3458 49.1191 31.4641 49.2645 31.1922 49.727C30.6047 50.727 29.9188 51.6785 29.3781 52.7223C29.1219 53.216 28.8698 53.6905 28.6219 54.1457C28.4859 54.3957 28.2219 54.4629 28.0813 54.7285C27.849 55.1712 27.6109 55.6155 27.3672 56.0613C26.7594 57.1754 25.9812 58.2223 25.2547 59.241C25.0464 59.5327 24.963 59.8447 25.0047 60.177C25.008 60.2012 25.0163 60.2245 25.0291 60.2453C25.0419 60.2662 25.0589 60.2841 25.0791 60.2979C25.0993 60.3118 25.1221 60.3212 25.1462 60.3257C25.1702 60.3301 25.195 60.3295 25.2188 60.3238C25.2875 60.3082 25.351 60.2853 25.4094 60.2551C27.1448 59.3582 28.7052 58.5853 30.0906 57.9363C31.5797 57.2395 33.1406 56.4301 34.7203 55.777C34.8828 55.7103 35.0328 55.5858 35.1703 55.4035C35.2016 55.3619 35.2412 55.3311 35.2891 55.3113C36.1438 54.9504 36.9766 54.477 37.8969 54.1863C38.0625 54.1332 38.1281 54.027 38.1875 53.8785C38.2063 53.8337 38.2385 53.8051 38.2844 53.7926C38.7625 53.6572 39.2411 53.4582 39.7203 53.1957C39.7306 53.19 39.7422 53.1869 39.7541 53.1867C39.7659 53.1865 39.7775 53.1893 39.7881 53.1947C39.7986 53.2001 39.8076 53.208 39.8143 53.2177C39.821 53.2274 39.8252 53.2387 39.8266 53.2504Z" fill="#169BFF"/>
<path d="M39.8266 53.2504C39.8252 53.2387 39.821 53.2274 39.8143 53.2177C39.8076 53.208 39.7986 53.2001 39.788 53.1947C39.7775 53.1893 39.7659 53.1865 39.754 53.1867C39.7422 53.1869 39.7306 53.19 39.7203 53.1957C39.2411 53.4582 38.7625 53.6572 38.2844 53.7926C38.2385 53.8051 38.2062 53.8337 38.1875 53.8785C38.1281 54.027 38.0625 54.1332 37.8969 54.1863C36.9766 54.477 36.1437 54.9504 35.2891 55.3113C35.2411 55.3311 35.2016 55.3619 35.1703 55.4035C35.0328 55.5858 34.8828 55.7103 34.7203 55.777C33.1406 56.4301 31.5797 57.2395 30.0906 57.9363C28.7052 58.5853 27.1448 59.3582 25.4094 60.2551C25.351 60.2853 25.2875 60.3082 25.2187 60.3238C25.1949 60.3295 25.1702 60.3301 25.1462 60.3257C25.1221 60.3212 25.0993 60.3118 25.0791 60.2979C25.0589 60.2841 25.0419 60.2662 25.0291 60.2453C25.0163 60.2245 25.0079 60.2012 25.0047 60.177C24.963 59.8447 25.0463 59.5327 25.2547 59.241C25.9812 58.2223 26.7594 57.1754 27.3672 56.0613C27.6109 55.6155 27.849 55.1712 28.0812 54.7285C28.2219 54.4629 28.4859 54.3957 28.6219 54.1457C28.8698 53.6905 29.1219 53.216 29.3781 52.7223C29.9187 51.6785 30.6047 50.727 31.1922 49.727C31.4641 49.2645 31.3458 49.1191 30.8375 49.291C30.2875 49.4764 29.6333 49.552 28.875 49.5176C28.801 49.5145 28.7609 49.5499 28.7547 49.6238C28.7505 49.6728 28.7354 49.7181 28.7094 49.7598C28.6812 49.8046 28.6427 49.8358 28.5937 49.8535C27.9583 50.0869 27.3219 50.1869 26.6844 50.1535C26.6229 50.1504 26.587 50.179 26.5766 50.2395C26.5578 50.3478 26.5177 50.4436 26.4562 50.527C26.4121 50.5862 26.3475 50.6269 26.275 50.641C25.2781 50.8379 24.3766 51.241 23.3656 51.4145C22.6656 51.5363 22.0219 51.8348 21.3187 51.9895C20.5292 52.1634 19.737 52.3264 18.9422 52.4785C18.8891 52.4889 18.862 52.4671 18.8609 52.4129C18.8547 51.9525 18.9833 51.5593 19.2469 51.2332C19.8125 50.5348 20.3031 49.8348 20.6859 49.016C21.0828 48.165 21.55 47.315 22.0875 46.466C22.2427 46.2212 22.3333 45.9452 22.3594 45.6379C22.3646 45.5744 22.3349 45.5426 22.2703 45.5426C21.3193 45.554 20.3797 45.6988 19.4516 45.977C19.1224 46.0759 18.7453 46.1181 18.3203 46.1035C18.0922 46.0952 17.9021 46.0093 17.75 45.8457C17.2234 45.2785 17.2437 44.8488 17.1844 44.1613C17.1297 43.5488 17.3437 43.066 17.9469 42.816C18.7302 42.491 19.5203 42.2879 20.3172 42.2066C20.9557 42.141 21.5625 42.052 22.1375 41.9395C24.05 41.5634 25.7474 41.254 27.2297 41.0113C27.6255 40.9468 28.0479 40.9077 28.4969 40.8941C28.551 40.8921 28.587 40.9171 28.6047 40.9691C28.7234 41.3171 28.7088 41.6217 28.5609 41.8832C27.6182 43.5436 26.612 45.2056 25.5422 46.8691C25.3932 47.1014 25.4542 47.191 25.725 47.1379C26.5208 46.9837 27.3031 46.7671 28.0719 46.4879C29.1047 46.1145 30.1422 45.8223 31.1578 45.4816C32.5969 44.9973 34.1156 44.6348 35.6203 44.2598C35.9344 44.1816 36.1594 43.9113 36.4984 43.852C37.0651 43.752 37.6338 43.5858 38.2047 43.3535C38.4234 43.2645 38.6594 43.3129 38.875 43.3801C38.8879 43.3841 38.8998 43.3907 38.9101 43.3995C38.9204 43.4083 38.9288 43.4191 38.9348 43.4312C38.9408 43.4433 38.9442 43.4566 38.945 43.4701C38.9457 43.4836 38.9437 43.4971 38.9391 43.5098C38.8703 43.7046 38.7859 43.8858 38.6859 44.0535C38.2328 44.8119 37.8109 45.5337 37.4203 46.2191C36.9266 47.0837 36.2318 48.1848 35.3359 49.5223C35.2187 49.6957 35.0187 49.8301 34.9234 50.0113C34.5469 50.7176 34.1625 51.2066 34.0234 52.0598C34.019 52.0879 34.0209 52.1167 34.0289 52.144C34.037 52.1713 34.051 52.1965 34.07 52.2178C34.089 52.239 34.1125 52.2558 34.1388 52.2668C34.165 52.2779 34.1934 52.2829 34.2219 52.2816C34.5937 52.265 34.9615 52.1311 35.325 51.8801C35.9812 51.4254 36.6375 50.9223 37.3484 50.577C37.8911 50.3134 38.4812 50.0441 39.1187 49.7691C39.4953 49.6082 39.8078 49.352 40.2141 49.2551C40.2592 49.2441 40.2983 49.2167 40.3234 49.1785L40.3781 49.091C40.3927 49.0681 40.413 49.053 40.4391 49.0457C41.1328 48.8629 41.6375 48.4098 42.2906 48.1645C43.1875 47.829 44.0703 47.4249 44.9391 46.952C45.1797 46.8207 45.4578 46.7473 45.7234 46.6738C45.7724 46.6593 45.8208 46.6613 45.8687 46.6801C45.9729 46.7197 46.0667 46.7801 46.15 46.8613C46.1885 46.8999 46.1958 46.9436 46.1719 46.9926C45.0219 49.2895 44.2562 51.7207 43.3766 54.0332C43.2099 54.4728 42.962 54.9395 42.6328 55.4332C42.4609 55.6915 42.4068 55.9957 42.4703 56.3457C42.4766 56.3842 42.4979 56.4113 42.5344 56.427C43.4031 56.7879 43.7656 55.9504 44.5 55.8973C44.5531 55.8931 44.5828 55.8645 44.5891 55.8113L44.5984 55.7379C44.6047 55.6889 44.6297 55.653 44.6734 55.6301C44.9588 55.478 45.2542 55.3639 45.5594 55.2879C46.3625 55.0863 46.9172 57.1988 47.0609 57.7082C47.0755 57.7624 47.0599 57.8051 47.0141 57.8363C45.7641 58.6822 44.4969 59.4254 43.2125 60.066C42.1828 60.5801 41.2375 61.1723 40.2187 61.6863C40.0422 61.7754 39.9391 61.9692 39.7656 62.0363C38.9021 62.3759 38.0656 62.7733 37.2562 63.2285C37.0156 63.3629 36.7318 63.4191 36.4047 63.3973C36.3557 63.3941 36.3297 63.3681 36.3266 63.3191C36.2437 62.2348 36.9391 61.5363 37.2578 60.5754C37.5432 59.7171 37.8484 58.9087 38.1734 58.1504C38.5307 57.315 38.8156 56.5613 39.0281 55.8895C39.3203 54.9707 39.9625 54.2801 39.8266 53.2504Z" fill="#F5FBFE"/>
</g>
<defs>
<clipPath id="clip0_3_3">
<rect width="74" height="76" fill="white"/>
</clipPath>
</defs>
</svg>
