<svg width="116" height="100" viewBox="0 0 116 100" fill="none" xmlns="http://www.w3.org/2000/svg">
<g clip-path="url(#clip0_3_3)">
<path d="M50.7573 18.8678C50.2936 18.8157 49.8234 18.7813 49.3465 18.7649C48.5823 18.7388 47.8907 18.6984 47.2719 18.6435C46.7135 18.5957 46.2964 18.3092 46.0203 17.7842C46.0046 17.7545 45.98 17.7289 45.9488 17.7104C45.9178 17.692 45.8814 17.6812 45.844 17.6793C45.661 17.6697 45.559 17.7397 45.5378 17.8891C45.31 17.0112 44.7443 16.2422 44.4822 15.4734C44.3499 15.0883 44.2316 14.7085 44.127 14.3343C43.9262 13.6087 43.2208 13.3024 43.4681 12.4512C43.4943 12.3566 43.4518 12.297 43.3407 12.2723C42.9849 12.1969 42.7816 11.9571 42.7309 11.5527C42.8076 11.5253 42.8714 11.5637 42.922 11.6679C42.9513 11.7254 42.9799 11.7727 43.0076 11.8097C43.0347 11.8465 43.0763 11.8741 43.125 11.8879C43.1739 11.9016 43.2269 11.9006 43.2749 11.885C43.3228 11.8693 43.3628 11.8401 43.3879 11.8023C43.4128 11.7645 43.4213 11.7206 43.4119 11.6781C43.188 10.7132 42.7872 10.091 42.2092 9.81137C41.9855 9.60167 41.854 9.3296 41.8148 8.99517C41.8083 8.92801 41.7756 8.87181 41.7169 8.82658C41.5291 8.67992 41.4059 8.51339 41.3471 8.327C41.4662 8.30369 41.5372 8.30233 41.5601 8.32288C41.7266 8.4668 41.8156 8.43801 41.8271 8.23654C41.8565 7.75545 41.7512 6.88373 41.2736 6.54039C40.9502 6.30739 40.7338 6.36154 40.6244 6.70281L39.9093 4.72708C39.8505 4.5626 39.7615 4.40977 39.6423 4.2686C38.8879 3.38593 38.5761 2.41074 38.7067 1.34303C38.7164 1.26354 38.7678 1.21625 38.8609 1.20117L40.0219 1.01203C40.1198 0.99695 40.1974 0.955147 40.2546 0.886616L40.4481 0.658409C40.4906 0.606325 40.5493 0.574116 40.6244 0.56178C41.0728 0.489822 41.4866 0.40553 41.8736 0.185546C42.1545 0.0292962 42.4933 -0.0282688 42.89 0.0128496C42.9684 0.0210733 43.033 0.0512272 43.0836 0.103311C43.2028 0.228037 43.291 0.371264 43.3481 0.532997C43.5211 1.01408 43.6168 1.45816 43.6346 1.86524C43.6379 1.93925 43.6697 2.00299 43.7302 2.05643C43.9409 2.24353 44.056 2.36893 44.1736 2.61564C44.8838 4.10276 45.5271 5.56041 46.1035 6.98859C46.1869 7.19213 46.1134 7.37305 46.2358 7.5848C46.5641 8.15223 46.9242 8.70117 47.196 9.2871C47.8344 10.6687 48.3717 11.8789 48.8076 12.9179C48.9203 13.1851 49.0134 13.4716 49.0869 13.7772C49.1032 13.8458 49.1407 13.9054 49.1995 13.956C49.2845 14.0314 49.3203 14.1213 49.3073 14.2254C49.2959 14.3022 49.3163 14.3728 49.3685 14.4372C49.6086 14.7387 49.758 15.0909 49.8168 15.4939C49.8265 15.5625 49.8723 15.6035 49.954 15.6172C49.9817 15.6228 50.0046 15.6337 50.0225 15.6501C50.0519 15.6762 50.0698 15.7071 50.0764 15.7428C50.1303 16.0346 50.198 16.3157 50.2797 16.5857C50.3059 16.6679 50.3596 16.7337 50.4413 16.783C50.554 16.8529 50.6021 16.9454 50.5858 17.0605C50.5744 17.1428 50.6153 17.1976 50.7083 17.225C50.7312 17.2318 50.7508 17.2421 50.7671 17.2559C50.8128 17.2929 50.8227 17.3354 50.7965 17.3833C50.7639 17.4463 50.71 17.4916 50.6349 17.5191C50.5532 17.5492 50.5474 17.5883 50.6177 17.6362C51.1762 18.0228 50.7377 18.3846 50.7573 18.8678Z" fill="#0092FF"/>
<path d="M73.7737 0.962676L73.7516 1.43554C73.7484 1.51092 73.7876 1.56301 73.8691 1.59179C74.0765 1.66444 74.2251 1.78916 74.315 1.96596C74.346 2.02491 74.3574 2.08726 74.3493 2.15305C74.3167 2.41758 74.4154 2.64784 74.6456 2.84384L73.9525 4.28916C73.7401 4.30698 73.6505 4.38511 73.6831 4.52353C73.7092 4.64004 73.7589 4.70857 73.8325 4.72912C73.736 5.01284 73.6095 5.2945 73.4528 5.57411C73.2209 5.98666 72.9784 6.51161 72.7254 7.14895C72.6797 7.26408 72.5955 7.37031 72.4731 7.46762C72.4077 7.51833 72.3644 7.58 72.3433 7.65265C72.0519 8.59015 71.7799 9.53999 71.1969 10.3747C70.8737 10.8352 70.6238 11.3396 70.4475 11.8878C70.3675 12.1346 70.2418 12.3662 70.0703 12.5827C69.8499 12.8603 69.6074 13.1708 69.5657 13.512C69.5046 13.9972 69.5046 14.6633 69.1787 15.0787C68.8799 15.4589 68.8554 15.9154 68.6154 16.2937C68.2431 16.8817 67.55 17.7205 67.6307 18.3825C67.6406 18.4566 67.6039 18.5072 67.5205 18.5346C67.1214 18.6724 66.4967 18.6971 66.2102 18.9829C66.1348 19.0582 66.0329 19.1116 65.9192 19.1351C65.8057 19.1588 65.6863 19.1516 65.5783 19.1145C64.6442 18.7978 63.7715 18.6532 62.96 18.6807L62.9537 18.6797L62.9488 18.6763L62.9466 18.6714L62.9476 18.6662C62.9689 18.6347 62.9648 18.6059 62.9354 18.5799C62.9256 18.5703 62.9134 18.5641 62.8987 18.5613C62.6309 18.5134 62.5124 18.3722 62.5435 18.1379C62.5974 17.7225 62.6121 17.0975 62.9208 16.7768C62.9992 16.6933 63.0636 16.6021 63.1142 16.5034C63.6318 15.4685 64.1102 14.4468 64.5495 13.438C64.596 13.3291 64.7307 13.2406 64.7602 13.1317C64.85 12.7808 64.9798 12.4347 65.1495 12.0934C65.3129 11.7659 65.4566 11.426 65.5806 11.0737C65.8386 10.3432 66.1547 9.65581 66.5285 9.01161C67.1654 7.91375 67.7696 6.64456 68.3411 5.20404C68.8424 3.94719 69.2138 2.81849 69.4555 1.81794C69.6 1.22584 69.9527 0.167038 70.908 0.249274C71.3096 0.283539 71.7292 0.344531 72.1669 0.432251C72.26 0.451439 72.3285 0.497355 72.3727 0.569997C72.4168 0.639898 72.5417 0.705686 72.6323 0.709798C73.0667 0.727617 73.4471 0.811909 73.7737 0.962676Z" fill="#1E9FFF"/>
<path d="M73.7737 0.962708L74.457 1.04495C74.5534 1.05591 74.6317 1.0936 74.6921 1.15802C74.8783 1.35676 75.0219 1.58565 75.1232 1.8447C75.1542 1.92419 75.1305 1.98861 75.0522 2.03795C74.786 2.20928 74.6506 2.47793 74.6455 2.84387C74.4154 2.64787 74.3165 2.41761 74.3493 2.15308C74.3574 2.08729 74.346 2.02494 74.3149 1.96599C74.2251 1.78919 74.0765 1.66447 73.8691 1.59182C73.7875 1.56304 73.7483 1.51095 73.7516 1.43557L73.7737 0.962708Z" fill="#EE3A38"/>
<path d="M73.9525 4.28918C73.8675 4.43172 73.8275 4.57838 73.8324 4.72915C73.7589 4.70859 73.7092 4.64005 73.683 4.52355C73.6504 4.38512 73.7401 4.307 73.9525 4.28918Z" fill="#EE3A38"/>
<path d="M41.347 8.32702L40.6245 6.70285C40.7339 6.36156 40.9502 6.30742 41.2736 6.54043C41.7512 6.88376 41.8566 7.75547 41.8271 8.23656C41.8157 8.43804 41.7266 8.46682 41.5602 8.3229C41.5373 8.30235 41.4663 8.30372 41.347 8.32702Z" fill="#EE3A38"/>
<path d="M42.2093 9.8114C42.7872 10.091 43.188 10.7133 43.4119 11.6782C43.4213 11.7206 43.4128 11.7646 43.3879 11.8023C43.3628 11.8401 43.3229 11.8694 43.2749 11.885C43.2269 11.9006 43.1739 11.9017 43.125 11.8879C43.0763 11.8742 43.0347 11.8465 43.0076 11.8098C42.9799 11.7727 42.9513 11.7255 42.922 11.6679C42.8714 11.5637 42.8076 11.5253 42.7309 11.5528C42.3259 11.0032 42.152 10.4227 42.2093 9.8114Z" fill="#EE3A38"/>
<path d="M50.7574 18.8678C51.0383 18.795 51.2391 18.8492 51.3599 19.0301C51.3723 19.0485 51.3788 19.0693 51.3786 19.0904C51.3784 19.1116 51.3717 19.1322 51.359 19.1505C51.3465 19.1688 51.3284 19.1841 51.3066 19.1946C51.2848 19.2053 51.2601 19.2109 51.235 19.211C50.0136 19.2234 48.7971 19.2268 47.5855 19.2213C46.9242 19.2192 46.5274 18.9355 46.0228 18.621C45.6783 18.4085 45.5167 18.1646 45.5378 17.8891C45.559 17.7397 45.6612 17.6697 45.844 17.6793C45.8814 17.6812 45.9178 17.692 45.9489 17.7104C45.98 17.7289 46.0048 17.7545 46.0203 17.7842C46.2964 18.3092 46.7135 18.5957 47.272 18.6435C47.8908 18.6984 48.5824 18.7388 49.3466 18.7649C49.8234 18.7813 50.2937 18.8157 50.7574 18.8678Z" fill="#EE3A38"/>
<path d="M31.5669 18.8513C29.8263 18.9678 28.0921 19.0226 26.3646 19.0158C26.3596 19.0158 25.9252 18.9829 25.0615 18.9171C24.6597 18.8868 24.2018 18.8951 23.6874 18.9417C23.0964 18.9951 22.0546 18.9821 20.5621 18.9026L31.5669 18.8513Z" fill="#1B1D1E"/>
<path d="M31.5669 18.8513C36.0981 18.8184 40.6563 18.808 45.2414 18.8204C45.5419 18.8204 45.8137 18.9013 46.0572 19.063C46.0979 19.285 46.0506 19.3967 45.915 19.3982C39.9404 19.4625 34.0628 19.4892 28.2824 19.4783C27.5133 19.477 26.6209 19.4928 25.6053 19.5257C23.7853 19.5832 21.9949 19.427 20.1481 19.4886C20.0486 19.4913 19.9939 19.4516 19.984 19.3694L19.9547 19.0877C20.1343 18.9452 20.3367 18.8834 20.5621 18.9027C22.0546 18.9821 23.0964 18.9952 23.6874 18.9417C24.2018 18.8952 24.6597 18.8869 25.0615 18.9171C25.9252 18.9829 26.3596 19.0158 26.3646 19.0158C28.0921 19.0227 29.8263 18.9678 31.5669 18.8513Z" fill="#EE3A38"/>
<path d="M62.0096 19.4598L52.4131 19.3323C52.3316 19.3323 52.3029 19.3646 52.3275 19.4289C52.4891 19.8798 52.5217 20.287 52.4255 20.6501C52.1021 20.241 51.4677 19.4516 51.6906 18.9993C51.7412 18.8951 51.8326 18.843 51.9649 18.843C55.1196 18.8443 58.0883 18.8443 60.8707 18.843C61.194 18.843 61.5189 18.8945 61.8454 18.9972C61.9304 19.0246 62.0154 19.0233 62.1002 18.9931L62.4602 18.8616C62.5681 18.8218 62.586 18.8409 62.5142 18.9191L62.0096 19.4598Z" fill="#EE3A38"/>
<path d="M95.0117 18.8903L112.595 18.952C112.7 18.952 112.775 18.9917 112.821 19.0712L112.995 19.3672C113.034 19.4358 113.008 19.4701 112.916 19.4701C99.3748 19.5016 85.959 19.4893 72.669 19.433C71.2042 19.427 69.7519 19.2728 68.2897 19.3755C67.981 19.3982 67.768 19.5153 67.4838 19.5441C67.3744 19.5565 67.3555 19.5276 67.4275 19.4578C67.4878 19.3975 67.5629 19.3742 67.6528 19.3879C67.7492 19.4016 67.8112 19.3687 67.839 19.2892C67.8732 19.1905 67.8569 19.0555 67.7899 18.8842L95.0117 18.8903Z" fill="#EE3A38"/>
<path d="M95.0116 18.8903C100.808 18.8479 106.603 18.8368 112.397 18.8574C112.777 18.8595 113.022 18.9951 113.311 19.172C113.394 19.2228 113.472 19.2179 113.546 19.1576L113.822 18.9293C113.891 18.8718 113.966 18.8663 114.048 18.9129C114.467 19.1555 114.821 19.4522 115.108 19.8032C115.154 19.8607 115.178 19.9238 115.179 19.9922C115.284 24.6551 115.21 29.3159 114.959 33.9746C114.939 34.3693 114.785 34.7908 114.785 35.2267C114.836 50.642 114.817 67.7184 114.729 86.4562C114.724 87.2908 114.259 87.8302 113.333 88.0741C113.295 88.084 113.261 88.1001 113.231 88.1216C113.201 88.1432 113.176 88.1698 113.159 88.1995C112.862 88.7136 112.034 89.7744 111.207 89.5626C111.115 89.5394 111.07 89.5674 111.072 89.6469C111.074 89.7154 111.1 89.7792 111.15 89.8382C111.203 89.9012 111.185 89.9423 111.096 89.9615C111.074 89.967 111.05 89.9663 111.025 89.9594C110.973 89.9429 110.934 89.9553 110.908 89.9965C110.602 90.4967 110.183 90.9024 109.649 91.2136C109.301 91.4178 108.964 91.6707 108.637 91.9721C107.778 92.7644 106.912 93.5175 106.039 94.2316C105.666 94.5338 105.458 94.9204 105.076 95.2123C104.416 95.7125 103.742 96.1991 103.053 96.672C102.918 96.7625 102.896 96.8159 102.835 96.9434C102.794 97.0311 102.723 97.0949 102.622 97.1346C102.524 97.1744 102.463 97.2374 102.438 97.3237C102.41 97.4279 102.332 97.4813 102.203 97.4841C102.064 97.4882 101.937 97.5204 101.821 97.5807C101.755 97.615 101.707 97.6616 101.676 97.7206C101.627 97.8152 101.565 97.894 101.49 97.957C101.35 98.0762 101.301 98.0542 101.346 97.8912C101.414 97.6445 101.324 97.5081 101.076 97.482C100.991 97.4738 100.947 97.4341 100.944 97.3628C100.81 94.7861 100.747 91.9886 100.755 88.9705C100.757 88.7458 100.775 88.5271 100.809 88.3146C100.863 87.9844 100.89 87.7692 100.89 87.6691C100.897 70.3363 100.908 53.0036 100.924 35.6708C100.926 35.2692 100.862 34.8717 100.733 34.4783C100.712 34.4166 100.664 34.3803 100.589 34.3693L99.5306 34.2192C99.4213 34.2042 99.329 34.2309 99.2539 34.2995L99.0212 34.5133C98.9608 34.5682 98.8865 34.5949 98.7982 34.5934C97.3899 34.575 96.1654 34.7579 94.7691 34.2954C94.7365 34.2843 94.7031 34.279 94.6688 34.279C94.6443 34.279 94.6197 34.2809 94.5953 34.285C94.5398 34.2946 94.5373 34.3111 94.5879 34.3343C94.6451 34.3604 94.668 34.3975 94.6566 34.4454C94.6418 34.5167 94.5912 34.5516 94.5047 34.5503C90.9482 34.468 87.5069 34.3899 83.9065 34.3879C62.8292 34.3742 41.2433 34.3817 19.1488 34.4105C17.1796 34.4132 14.638 34.4701 11.524 34.5811C11.3918 34.5853 11.3493 34.5387 11.3967 34.4413C11.4081 34.418 11.4114 34.3926 11.4065 34.3653C11.3967 34.2967 11.3518 34.2536 11.2718 34.2357C10.9632 34.1699 10.7697 34.2357 10.6913 34.433C10.6652 34.4988 10.6113 34.527 10.5296 34.5174C9.77033 34.4379 9.0535 34.3811 8.37911 34.3467C7.21161 34.285 5.69712 34.2884 3.83563 34.357C3.84706 34.2268 3.78011 34.1028 3.63478 33.9849C3.57712 33.9379 3.53643 33.8796 3.51721 33.8163C3.43393 33.5408 3.55395 33.3304 3.87726 33.1851C4.39325 32.9549 4.7876 32.6739 5.06029 32.3422C5.26767 32.09 5.51341 31.855 5.79753 31.637C6.34944 31.2121 6.86544 30.7845 7.34551 30.3541C8.68774 29.1514 10.1769 28.0309 11.5412 26.8796C11.6555 26.7837 11.7412 26.6754 11.7984 26.5547C11.9617 26.2039 11.8637 26.0709 11.5044 26.1559L12.4254 25.3336C12.4842 25.5255 12.4654 25.6913 12.3691 25.8311C12.3429 25.8695 12.3486 25.9038 12.3862 25.9339C12.4042 25.9476 12.4238 25.9532 12.445 25.9504C12.4973 25.9436 12.5389 25.9229 12.5699 25.8887C12.7218 25.7324 12.8638 25.5632 12.9961 25.3809C13.0434 25.3164 13.1096 25.2705 13.1945 25.2432C13.4655 25.1554 13.6403 25.0828 13.7186 25.0251C14.638 24.3317 15.4209 23.5888 16.0676 22.7966C16.1083 22.3416 16.3068 21.9612 16.6628 21.6555C17.8237 20.6605 18.5782 20.0251 18.9259 19.7497C19.1154 19.6003 19.4582 19.3796 19.9547 19.0876L19.984 19.3693C19.9938 19.4516 20.0485 19.4913 20.1481 19.4886C21.9948 19.427 23.7853 19.5832 25.6053 19.5257C26.6209 19.4928 27.5133 19.477 28.2824 19.4783C34.0628 19.4893 39.9403 19.4625 45.915 19.3982C46.0506 19.3967 46.0979 19.285 46.057 19.063C46.4572 19.3755 46.7985 19.8059 47.0809 20.3541C47.414 20.9983 47.5454 21.6034 47.4752 22.1695C47.4654 22.2367 47.4988 22.282 47.5756 22.3053L47.7398 22.3525C47.7777 22.3639 47.8119 22.3829 47.8395 22.4075C47.8672 22.4321 47.8874 22.4618 47.8989 22.4943C48.1357 23.1796 48.3823 23.8725 48.6386 24.5729C48.761 24.9059 48.815 25.2411 48.8002 25.5864C48.799 25.6271 48.8123 25.667 48.8385 25.7012C48.8648 25.7353 48.9026 25.762 48.9473 25.7776L49.0942 25.827C49.1791 25.8558 49.233 25.9079 49.2559 25.9833C49.6527 27.3175 49.6845 28.0803 51.5215 28.4997C51.6228 28.523 51.6847 28.4914 51.7076 28.4051C51.7394 28.2879 51.8399 28.1789 51.9648 28.1214C52.5379 27.8541 53.1372 27.7637 53.7627 27.85C53.8556 27.8637 53.9266 27.8363 53.9757 27.7678C54.0035 27.7308 54.0378 27.6972 54.0785 27.6671C54.1417 27.622 54.2218 27.5979 54.304 27.5992L54.8134 27.6033C55.0796 27.6047 55.1791 27.4971 55.1122 27.2805C54.9636 26.7967 54.8722 26.3218 54.8379 25.8558C54.833 25.7982 54.8134 25.7454 54.7791 25.6975C54.7219 25.6208 54.6673 25.5809 54.615 25.5783C54.5402 25.5751 54.4679 25.5528 54.4073 25.5139C54.3468 25.4751 54.3005 25.4217 54.2745 25.3603C53.8712 24.3886 53.481 23.4237 53.1037 22.4655C53.0449 22.3162 53.0181 22.1592 53.0229 21.9947C53.0262 21.8907 52.9772 21.8057 52.8759 21.7399C52.8008 21.6905 52.7502 21.6267 52.7242 21.5487L52.4252 20.6501C52.5216 20.287 52.489 19.8799 52.3273 19.4289C52.3028 19.3646 52.3313 19.3324 52.413 19.3324L62.0095 19.4599L61.865 19.6737C61.8258 19.7312 61.7687 19.7696 61.6935 19.7888C61.5514 19.8271 61.4191 19.8847 61.2967 19.9614C61.2288 20.0051 61.1828 20.068 61.1669 20.1383C61.0428 20.7236 60.9 21.3142 60.7383 21.9105C60.6354 22.2846 60.4869 22.5875 60.2925 22.8192C59.9839 23.1892 59.7022 23.5984 59.5675 24.0363C59.3258 24.8189 58.9846 25.5749 58.5438 26.3039C58.497 26.3824 58.4765 26.47 58.4843 26.5575C58.492 26.6451 58.5278 26.7293 58.5878 26.8014C58.7707 27.0222 59.01 27.1893 59.3054 27.3032C60.4223 27.7349 61.4804 28.1892 62.7223 28.3887C62.8072 28.4024 62.8684 28.3763 62.906 28.3105C63.0823 27.9926 63.3231 27.7321 63.6285 27.5293C63.6807 27.495 63.7076 27.4491 63.7094 27.3916L63.7264 26.6843C63.7271 26.6389 63.7424 26.5946 63.771 26.5558C63.7993 26.5171 63.8399 26.4855 63.8881 26.4643C64.0694 26.3862 64.1715 26.267 64.1944 26.1066C64.2088 26.0087 64.2572 25.9164 64.3339 25.8414C64.4482 25.7304 64.5273 25.6001 64.5715 25.4508C64.6825 25.0711 64.8621 24.71 65.1103 24.3672C65.2377 24.1918 65.3194 24.0109 65.3553 23.8245C65.4116 23.5408 65.5928 23.2695 65.6052 22.9899C65.6116 22.85 65.6948 22.7493 65.8549 22.6876C65.9043 22.6687 65.9471 22.6395 65.9792 22.6028C66.0113 22.5661 66.0319 22.5232 66.0386 22.4779C66.0844 22.1722 66.2019 21.8886 66.3913 21.6267C66.4338 21.5678 66.4501 21.5041 66.4404 21.4355C66.3864 21.0587 66.4999 20.6982 66.7809 20.3541C66.8313 20.2925 66.8542 20.2239 66.8494 20.1486C66.8053 19.4289 67.1188 19.0075 67.7899 18.8842C67.8568 19.0555 67.8731 19.1905 67.839 19.2892C67.8111 19.3687 67.7491 19.4016 67.6527 19.3879C67.5629 19.3742 67.4878 19.3975 67.4275 19.4578C67.3555 19.5276 67.3743 19.5564 67.4837 19.5441C67.7678 19.5153 67.981 19.3982 68.2895 19.3755C69.7519 19.2728 71.2042 19.427 72.6689 19.433C85.9589 19.4893 99.3748 19.5016 112.916 19.4701C113.008 19.4701 113.034 19.4358 112.995 19.3672L112.821 19.0712C112.775 18.9917 112.7 18.952 112.595 18.952L95.0116 18.8903ZM14.4338 34.1188C14.4339 34.0954 14.3494 34.0726 14.1988 34.0557C14.0482 34.0386 13.8439 34.0287 13.6308 34.028C13.5253 34.0278 13.4208 34.0297 13.3233 34.034C13.2258 34.038 13.1373 34.0443 13.0626 34.0524C12.988 34.0603 12.9288 34.0699 12.8883 34.0805C12.8479 34.0911 12.8271 34.1025 12.8271 34.1141C12.827 34.1376 12.9116 34.1603 13.0622 34.1774C13.2128 34.1943 13.4171 34.2042 13.6301 34.2049C13.7356 34.2051 13.8401 34.2032 13.9376 34.1991C14.0351 34.1949 14.1237 34.1887 14.1983 34.1807C14.2729 34.1726 14.3322 34.163 14.3726 34.1525C14.413 34.1418 14.4338 34.1304 14.4338 34.1188ZM27.1459 34.144C27.1459 34.134 27.1435 34.124 27.1388 34.1147C27.1343 34.1055 27.1277 34.0972 27.1192 34.0901C27.1108 34.083 27.1007 34.0775 27.0897 34.0737C27.0788 34.0699 27.067 34.0679 27.0551 34.0679L25.3552 34.0704C25.3312 34.0705 25.3082 34.0786 25.2911 34.0928C25.2742 34.1071 25.2648 34.1265 25.2648 34.1466V34.1549C25.2648 34.1649 25.2671 34.1747 25.2717 34.184C25.2762 34.1932 25.283 34.2016 25.2914 34.2087C25.2999 34.2157 25.3098 34.2213 25.3209 34.2251C25.3319 34.2288 25.3436 34.2308 25.3555 34.2308L27.0554 34.2283C27.0794 34.2283 27.1024 34.2203 27.1194 34.2059C27.1363 34.1916 27.1459 34.1722 27.1459 34.1521V34.144ZM35.6156 34.1451C35.6156 34.1351 35.6132 34.1253 35.6087 34.1161C35.604 34.1068 35.5974 34.0984 35.5889 34.0915C35.5805 34.0843 35.5704 34.0788 35.5595 34.075C35.5485 34.0712 35.5367 34.0692 35.5248 34.0692L32.7424 34.0733C32.7305 34.0733 32.7187 34.0753 32.7077 34.0791C32.6968 34.083 32.6867 34.0886 32.6783 34.0957C32.67 34.1028 32.6632 34.1112 32.6587 34.1204C32.6541 34.1296 32.6519 34.1395 32.6519 34.1495V34.1536C32.6519 34.1636 32.6543 34.1734 32.6588 34.1828C32.6634 34.192 32.6701 34.2003 32.6786 34.2074C32.6871 34.2143 32.6969 34.22 32.7081 34.2238C32.719 34.2276 32.7308 34.2296 32.7427 34.2295L35.5251 34.2254C35.537 34.2254 35.5488 34.2234 35.5598 34.2196C35.5708 34.2158 35.5808 34.2101 35.5891 34.203C35.5976 34.1961 35.6043 34.1876 35.6087 34.1784C35.6132 34.1691 35.6156 34.1592 35.6156 34.1492V34.1451ZM41.0726 34.1454C41.0726 34.1365 41.0706 34.1276 41.0663 34.1195C41.0623 34.1112 41.0563 34.1037 41.0488 34.0975C41.0412 34.0912 41.0323 34.0862 41.0224 34.0829C41.0127 34.0795 41.0022 34.0778 40.9916 34.0778L38.4247 34.0853C38.4032 34.0854 38.3827 34.0925 38.3676 34.1053C38.3526 34.1182 38.3441 34.1354 38.3441 34.1534V34.1616C38.3442 34.1705 38.3463 34.1793 38.3504 34.1875C38.3546 34.1958 38.3606 34.2032 38.3681 34.2095C38.3756 34.2158 38.3845 34.2208 38.3943 34.2241C38.4041 34.2275 38.4146 34.2292 38.4253 34.2292L40.9922 34.2217C41.0135 34.2216 41.034 34.2143 41.0492 34.2016C41.0643 34.1888 41.0728 34.1716 41.0726 34.1536V34.1454ZM43.8527 34.1267C43.629 34.0925 43.3939 34.0836 43.1473 34.1C42.8664 34.1192 42.8607 34.1624 43.1302 34.2296C43.2641 34.2638 43.5041 34.257 43.8502 34.209C44.0397 34.1816 44.0405 34.1542 43.8527 34.1267ZM48.4378 34.0918L46.9119 34.0754C46.8891 34.0754 46.8776 34.085 46.8776 34.1041L46.88 34.1741C46.8806 34.19 46.8887 34.2053 46.9024 34.2163C46.9162 34.2275 46.9344 34.2337 46.9535 34.2337L48.4574 34.2111C48.4607 34.2111 48.4623 34.2097 48.4623 34.207L48.4867 34.1515C48.5047 34.113 48.4884 34.0932 48.4378 34.0918ZM50.8062 34.0857L49.8364 34.0733C49.8151 34.0733 49.8028 34.0822 49.7996 34.1L49.7873 34.1555C49.7759 34.209 49.8021 34.235 49.8657 34.2337L50.8454 34.2111C50.8617 34.2111 50.8699 34.2076 50.8699 34.2008L50.8724 34.1432C50.8724 34.1062 50.8503 34.087 50.8062 34.0857ZM94.196 34.3097C94.3545 34.2809 94.3553 34.2501 94.1985 34.2172C93.9716 34.1692 93.7471 34.1747 93.5249 34.2337C93.4057 34.2651 93.4074 34.2912 93.5298 34.3118C93.7502 34.3501 93.9723 34.3495 94.196 34.3097Z" fill="#1E9FFF"/>
<path d="M16.0676 22.7966C15.4209 23.5888 14.638 24.3317 13.7186 25.0251C13.6403 25.0828 13.4656 25.1554 13.1945 25.2432C13.1096 25.2705 13.0435 25.3164 12.9961 25.3809C12.8638 25.5632 12.7218 25.7324 12.5699 25.8887C12.5389 25.9229 12.4973 25.9436 12.445 25.9504C12.4238 25.9532 12.4042 25.9476 12.3862 25.9339C12.3487 25.9038 12.343 25.8695 12.3691 25.8311C12.4654 25.6913 12.4842 25.5255 12.4254 25.3336C13.2288 24.5276 14.2134 23.9191 15.029 23.1112C15.3197 22.8233 15.6659 22.7184 16.0676 22.7966Z" fill="#EE3A38"/>
<path d="M3.83566 34.357C3.674 34.4502 3.47152 34.4695 3.22823 34.4146C3.14005 34.3941 3.08288 34.3473 3.05677 34.2747C2.97839 34.0459 2.8151 33.8834 2.5669 33.7875C2.41667 33.7285 2.42239 33.6841 2.58405 33.6539C2.83388 33.6059 2.95472 33.4833 2.94655 33.2859C2.94329 33.19 2.98411 33.1112 3.06901 33.0495C4.56964 31.9475 6.01311 30.7852 7.39942 29.5626C8.67307 28.4401 10.1794 27.3339 11.5045 26.1559C11.8637 26.0709 11.9617 26.2039 11.7984 26.5547C11.7413 26.6754 11.6555 26.7837 11.5412 26.8796C10.177 28.0309 8.68777 29.1514 7.34554 30.3541C6.86547 30.7845 6.34948 31.2121 5.79757 31.637C5.51345 31.855 5.2677 32.09 5.06032 32.3422C4.78763 32.6739 4.39328 32.9548 3.8773 33.1851C3.55399 33.3304 3.43396 33.5408 3.51724 33.8163C3.53646 33.8796 3.57715 33.9379 3.63481 33.9848C3.78014 34.1027 3.84709 34.2268 3.83566 34.357Z" fill="#EE3A38"/>
<path d="M91.8226 38.9684L91.7859 39.2522C91.7818 39.284 91.765 39.3136 91.7384 39.3363C91.7117 39.3591 91.6766 39.3736 91.639 39.3776C90.5481 39.49 89.6419 39.4913 88.9202 39.3817C88.383 39.3008 87.8482 39.279 87.316 39.3159C86.8195 39.3516 86.3386 39.3693 85.8732 39.3693C57.7926 39.368 29.7161 39.3687 1.64347 39.3715C1.35935 39.3715 1.0287 39.4084 0.756821 39.4763C0.662114 39.4996 0.60088 39.4708 0.573121 39.3899C0.533932 39.2803 0.462903 39.2055 0.360031 39.1658L0.499637 38.8986C0.533928 38.8341 0.591901 38.7937 0.673545 38.7772C0.960116 38.7197 1.17565 38.6107 1.47937 38.6107C26.8675 38.5984 52.2097 38.6004 77.5063 38.6168C80.2691 38.619 83.3185 38.7567 85.8978 38.7649C87.2056 38.7691 88.5136 38.7704 89.8216 38.7691C89.9081 38.7691 89.988 38.7875 90.0616 38.8245C90.5343 39.063 91.2887 38.9767 91.8226 38.9684Z" fill="#EE3A38"/>
<path d="M91.8228 38.9684L94.8109 38.9705C94.8992 38.9705 94.9791 38.9925 95.0509 39.0363C95.2323 39.1446 95.4364 39.189 95.6634 39.1698C95.748 39.1633 95.8324 39.1847 95.8985 39.2296C96.1057 39.3693 96.1793 39.5647 96.1189 39.8155C96.1026 39.884 96.0528 39.9265 95.9695 39.943L95.8617 39.9635C95.7833 39.9785 95.7433 40.0204 95.7417 40.0889L95.7344 40.6563C95.7344 40.7413 95.7833 40.7927 95.8813 40.8105L95.9866 40.829C96.0225 40.8352 96.0548 40.8521 96.0775 40.8765C96.1004 40.9009 96.1123 40.9314 96.1115 40.9626L96.0283 43.2468C96.0266 43.3222 96.0029 43.3914 95.9573 43.4544C95.8886 43.5518 95.851 43.6565 95.8446 43.769C95.7776 45.0381 95.7319 46.3362 95.7074 47.6629C95.7057 47.8301 95.6069 47.9089 95.411 47.8993C95.39 47.8984 95.369 47.9018 95.35 47.9094C95.3312 47.9169 95.3149 47.9285 95.3028 47.9427C95.2908 47.9569 95.2832 47.9735 95.2812 47.9908C95.2792 48.008 95.2826 48.0254 95.2911 48.0411C95.3318 48.118 95.4061 48.1577 95.5138 48.1605C95.6217 48.1618 95.6789 48.2077 95.6853 48.2983C95.7082 48.6161 95.7196 48.9301 95.7196 49.2398C95.7555 70.6351 95.7204 84.17 95.6143 89.8443C95.5555 92.9268 95.5188 96.01 95.5041 99.0938C95.5041 99.1335 95.4919 99.17 95.4674 99.2029L95.4158 99.2687C95.3555 99.3509 95.3832 99.3954 95.4992 99.4022C95.54 99.4037 95.5784 99.4125 95.6143 99.4289C95.6698 99.4537 95.709 99.492 95.7319 99.5441C95.7678 99.6263 95.7507 99.6955 95.6804 99.7517C95.6298 99.7929 95.5522 99.8134 95.4478 99.8134C63.9706 99.8121 32.4339 99.8121 0.837651 99.8134C0.790297 99.8134 0.760089 99.7942 0.747027 99.7559C0.729066 99.7023 0.71519 99.6387 0.705392 99.5647C0.693962 99.4893 0.668645 99.4454 0.629456 99.4331C0.575571 99.4152 0.506991 99.4419 0.423714 99.5133C0.662115 99.0664 0.781321 98.6531 0.781321 98.2735C0.807447 87.6019 0.765806 76.931 0.656403 66.2608C0.649055 65.57 0.724982 64.7352 0.707836 63.9726C0.698039 63.4833 0.627011 62.9871 0.494747 62.484C0.385343 62.066 0.352688 61.6425 0.396776 61.2135C0.43923 60.7996 0.459641 60.3877 0.458008 59.9779C0.444945 57.1297 0.462088 54.368 0.509442 51.6925C0.519239 51.1025 0.666201 50.5083 0.67355 49.9059C0.701309 47.5362 0.706207 45.1088 0.688245 42.6239C0.680897 41.7851 0.578023 40.9504 0.693142 40.1013C0.697782 40.0686 0.69333 40.0358 0.680142 40.0051C0.666956 39.9743 0.645401 39.9467 0.617213 39.9244L0.19838 39.5914C0.217974 39.3529 0.271861 39.211 0.360037 39.1658C0.462908 39.2055 0.533938 39.2802 0.573127 39.3898C0.600886 39.4708 0.66212 39.4996 0.756826 39.4763C1.0287 39.4084 1.35936 39.3714 1.64348 39.3714C29.7161 39.3686 57.7926 39.368 85.8733 39.3693C86.3387 39.3693 86.8196 39.3515 87.3161 39.3159C87.8483 39.2789 88.3831 39.3008 88.9203 39.3817C89.642 39.4913 90.5482 39.49 91.6391 39.3776C91.6767 39.3735 91.7118 39.359 91.7385 39.3363C91.7651 39.3135 91.7819 39.2839 91.786 39.2522L91.8228 38.9684ZM66.487 45.5802C65.0009 45.5556 63.5649 45.5618 62.1785 45.5988C62.0773 45.6015 61.9932 45.6338 61.9263 45.6954C61.874 45.7434 61.8087 45.7722 61.7304 45.7818C61.2634 45.8406 60.8086 45.8729 60.3661 45.8784C57.9265 45.9085 54.9056 45.9072 51.3035 45.8743C45.9951 45.825 40.5265 45.8256 34.898 45.8763C32.3769 45.8983 29.0922 46.0634 25.0444 46.3718C24.9317 46.3814 24.8566 46.4308 24.819 46.5198L24.7088 46.7871C24.6712 46.8776 24.5986 46.9379 24.4907 46.968C23.8491 47.1462 23.2613 47.3394 22.7272 47.5477C20.0412 48.595 17.9715 50.1883 16.5182 52.3277C15.4552 53.8917 14.7506 55.4734 14.4045 57.0729C14.3277 57.4223 14.2934 57.7918 14.3016 58.181C14.3236 59.176 14.1032 60.1855 13.9856 61.1806C13.9105 61.8248 13.8738 62.4456 13.8754 63.0433C13.8836 65.9681 13.9538 70.0347 14.0861 75.2431C14.1252 76.7604 14.389 78.0569 14.8772 79.1329C15.1246 79.6756 15.0486 80.2267 15.2911 80.7406C15.9834 82.2181 16.9224 83.4352 18.1079 84.3919C20.1824 86.0675 22.5901 87.2785 25.4608 87.8151C26.9874 88.1001 28.5395 88.2434 30.1169 88.2447C43.7924 88.2516 57.226 88.2523 70.4181 88.2468C71.5872 88.2468 72.4779 88.2248 73.0904 88.181C75.3168 88.0206 77.4134 87.593 79.4439 86.7439C79.9435 86.5342 80.426 86.2614 80.8914 85.9256C81.3845 85.568 81.8678 85.2287 82.3414 84.908C82.7847 84.6098 83.0664 84.174 83.5931 83.9643C83.6823 83.9283 83.7558 83.8701 83.8036 83.7977C84.1156 83.3181 84.425 82.8335 84.7319 82.3443C84.9327 82.0214 85.2684 81.8364 85.479 81.5239C86.64 79.801 87.2253 77.8801 87.2352 75.7612C87.2614 70.5227 87.2728 65.2835 87.2695 60.0437C87.267 58.5408 87.0858 57.299 86.7158 55.9215C86.5461 55.2856 86.2236 54.5325 85.7485 53.6621C84.3866 51.1635 82.3765 49.2193 79.7182 47.8294C76.8648 46.3389 73.5042 46.014 70.1487 45.9894C69.471 45.9839 68.7844 45.9448 68.0887 45.8722C67.5255 45.8147 67.0846 45.5905 66.487 45.5802Z" fill="#1E9FFF"/>
<path d="M0.198394 39.5914L0.617227 39.9245C0.645416 39.9467 0.66697 39.9743 0.680157 40.0051C0.693344 40.0358 0.697796 40.0687 0.693155 40.1013C0.578037 40.9504 0.680912 41.785 0.688259 42.6238C0.70622 45.1088 0.701323 47.5362 0.673565 49.9059C0.666216 50.5083 0.519254 51.1025 0.509456 51.6925C0.462103 54.368 0.444959 57.1297 0.458023 59.9779C0.459655 60.3877 0.439245 60.7996 0.396789 61.2135C0.352701 61.6425 0.385358 62.066 0.49476 62.4841C0.627024 62.9871 0.698053 63.4833 0.707851 63.9725C0.724997 64.7353 0.649069 65.57 0.656417 66.2608C0.765821 76.931 0.807462 87.602 0.781335 98.2735C0.781335 98.6532 0.66213 99.0664 0.423728 99.5133C0.118379 99.3405 -0.0179623 99.072 0.0146953 98.7074C0.0408215 98.4099 0.0538854 98.2564 0.0538854 98.2468C0.0424552 78.7924 0.0244932 59.3385 0 39.8854C0 39.7154 0.0661311 39.6175 0.198394 39.5914Z" fill="#EE3A38"/>
<path d="M66.487 45.5802C67.0845 45.5905 67.5255 45.8146 68.0887 45.8722C68.7844 45.9448 69.471 45.9839 70.1487 45.9894C73.5042 46.0141 76.8647 46.3389 79.7182 47.8294C82.3765 49.2193 84.3866 51.1635 85.7485 53.6621C86.2236 54.5325 86.546 55.2856 86.716 55.9216C87.0858 57.2991 87.267 58.5408 87.2695 60.0437C87.2728 65.2835 87.2613 70.5227 87.2351 75.7612C87.2254 77.8801 86.6399 79.801 85.479 81.5239C85.2683 81.8364 84.9327 82.0214 84.7319 82.3443C84.425 82.8335 84.1155 83.3181 83.8036 83.7977C83.7559 83.8701 83.6822 83.9283 83.5931 83.9643C83.0664 84.1741 82.7847 84.6098 82.3414 84.908C81.8678 85.2287 81.3845 85.568 80.8914 85.9256C80.4261 86.2614 79.9434 86.5342 79.4439 86.7439C77.4134 87.593 75.3168 88.0206 73.0903 88.181C72.4779 88.2248 71.5872 88.2468 70.4181 88.2468C57.2259 88.2523 43.7924 88.2516 30.1169 88.2447C28.5396 88.2434 26.9874 88.1001 25.4607 87.8151C22.5901 87.2785 20.1824 86.0675 18.1079 84.3919C16.9224 83.4352 15.9835 82.2181 15.2911 80.7406C15.0486 80.2267 15.1246 79.6756 14.8772 79.1329C14.389 78.0569 14.1253 76.7604 14.0861 75.2431C13.9538 70.0347 13.8836 65.9681 13.8754 63.0433C13.8738 62.4456 13.9105 61.8248 13.9856 61.1806C14.1032 60.1855 14.3236 59.176 14.3016 58.181C14.2934 57.7918 14.3277 57.4223 14.4045 57.0729C14.7507 55.4734 15.4552 53.8917 16.5182 52.3277C17.9715 50.1883 20.0412 48.595 22.7272 47.5477C23.2613 47.3394 23.8491 47.1462 24.4907 46.968C24.5986 46.9379 24.6712 46.8776 24.7088 46.7871L24.819 46.5198C24.8566 46.4308 24.9317 46.3814 25.0444 46.3718C29.0923 46.0634 32.3769 45.8983 34.898 45.8763C40.5265 45.8256 45.9951 45.825 51.3035 45.8743C54.9056 45.9072 57.9265 45.9085 60.3661 45.8784C60.8086 45.8729 61.2634 45.8406 61.7303 45.7817C61.8087 45.7722 61.8741 45.7434 61.9263 45.6954C61.9932 45.6338 62.0772 45.6016 62.1785 45.5988C63.5649 45.5618 65.0009 45.5556 66.487 45.5802ZM62.4309 70.0663C62.6439 71.4212 61.6372 72.3298 61.1792 73.5388C60.8461 74.4227 60.3995 75.4144 59.8394 76.5137C59.3299 77.5114 58.8515 78.5751 58.4041 79.7044C57.9045 80.9688 56.8146 81.8879 56.9444 83.3146C56.9493 83.3791 56.99 83.4133 57.0668 83.4175C57.5796 83.4462 58.0245 83.3722 58.4016 83.1954C59.6704 82.5964 60.9817 82.0735 62.3353 81.6267C62.6072 81.5384 62.7689 81.2834 63.0457 81.1662C64.6426 80.4898 66.1244 79.7106 67.7385 79.0342C69.7519 78.1913 71.7383 77.2134 73.6978 76.1004C73.7696 76.0593 73.794 76.0031 73.7711 75.9318C73.5459 75.2616 72.6764 72.4819 71.4174 72.7472C70.939 72.8472 70.4761 72.9973 70.0286 73.1975C69.9601 73.2276 69.9209 73.2748 69.911 73.3393L69.8964 73.4359C69.8866 73.5059 69.84 73.5435 69.7568 73.5491C68.6055 73.6189 68.0373 74.7209 66.6756 74.246C66.6183 74.2254 66.5849 74.1898 66.5751 74.1391C66.4755 73.6785 66.5603 73.2783 66.8298 72.9384C67.3458 72.2888 67.7344 71.6747 67.9958 71.0963C69.3747 68.0535 70.5749 64.8546 72.3776 61.8323C72.415 61.7679 72.4036 61.7104 72.3433 61.6596C72.2127 61.5527 72.0656 61.4733 71.9023 61.4212C71.8272 61.3964 71.7513 61.3938 71.6745 61.4129C71.2582 61.5096 70.8222 61.6062 70.4451 61.7789C69.0832 62.4012 67.6993 62.9329 66.2934 63.3743C65.2696 63.6971 64.4784 64.2933 63.391 64.5338C63.3501 64.5434 63.3183 64.5633 63.2954 64.5934L63.2097 64.7085C63.1703 64.7588 63.1092 64.7948 63.0383 64.8093C62.4014 64.9368 61.9116 65.2739 61.3214 65.4856C60.322 65.8475 59.3969 66.2018 58.5461 66.5487C57.4318 67.003 56.4031 67.665 55.3743 68.2633C54.8045 68.5935 54.2281 68.7697 53.6451 68.7916C53.6005 68.7933 53.556 68.7867 53.5149 68.7721C53.4737 68.7576 53.4368 68.7355 53.407 68.7076C53.3774 68.6796 53.3553 68.6464 53.3426 68.6105C53.3301 68.5746 53.3271 68.5367 53.334 68.4997C53.552 67.3771 54.1546 66.7337 54.7448 65.8043C54.8943 65.5659 55.2079 65.3891 55.3914 65.1609C56.7958 63.401 57.8849 61.9522 58.6589 60.8146C59.2711 59.9127 59.9325 58.963 60.6428 57.9651C60.7995 57.7444 60.9318 57.506 61.0397 57.2497C61.0469 57.233 61.05 57.2152 61.0489 57.1975C61.0477 57.1797 61.0423 57.1623 61.0329 57.1463C61.0235 57.1304 61.0104 57.1162 60.9942 57.1046C60.9782 57.093 60.9594 57.0843 60.9392 57.0791C60.6012 56.9906 60.2313 56.9269 59.8885 57.0441C58.9937 57.3497 58.1021 57.5684 57.2137 57.7C56.6823 57.778 56.3296 58.1338 55.8372 58.2366C53.4785 58.73 51.0978 59.2069 48.842 59.8442C47.2499 60.2925 45.6236 60.6769 44.0046 61.1683C42.7995 61.5356 41.5732 61.8206 40.3257 62.0235C39.9012 62.0934 39.8056 61.9755 40.0391 61.6698C41.7161 59.481 43.2934 57.2942 44.7711 55.1095C45.0031 54.7655 45.0259 54.3646 44.8398 53.9068C44.8121 53.8383 44.7556 53.8054 44.6708 53.808C43.967 53.8259 43.3048 53.8773 42.6844 53.9622C40.3608 54.2816 37.7 54.6887 34.702 55.1835C33.8007 55.3316 32.8495 55.4487 31.8486 55.535C30.5994 55.6419 29.3609 55.9092 28.133 56.3368C27.1876 56.6658 26.852 57.301 26.9377 58.1069C27.0308 59.0116 26.9988 59.5769 27.8243 60.3233C28.0628 60.5385 28.3607 60.6516 28.7183 60.6625C29.3845 60.6817 29.9757 60.6262 30.4917 60.496C31.9466 60.13 33.4194 59.9394 34.9102 59.9244C35.0115 59.9244 35.058 59.9663 35.0499 60.0498C35.009 60.4542 34.8669 60.8173 34.6236 61.1394C33.7811 62.2566 33.0487 63.375 32.4265 64.4947C31.8265 65.5721 31.0574 66.4931 30.1708 67.4121C29.7576 67.8412 29.556 68.3585 29.5657 68.9643C29.5675 69.0356 29.6099 69.0643 29.6932 69.0506C30.9391 68.8505 32.1809 68.636 33.4185 68.4072C34.5208 68.2037 35.5299 67.8109 36.6272 67.6506C38.212 67.4223 39.6251 66.8919 41.1878 66.6329C41.3015 66.6143 41.4028 66.5608 41.472 66.4829C41.5683 66.3731 41.6311 66.2471 41.6606 66.1046C41.6769 66.025 41.7332 65.9873 41.8296 65.9914C42.8289 66.0354 43.8265 65.9038 44.8226 65.5967C44.8994 65.5734 44.9599 65.5323 45.0039 65.4734C45.0447 65.4185 45.0684 65.3589 45.0749 65.2944C45.0847 65.1972 45.1475 65.1506 45.2635 65.1547C46.4522 65.2 47.4777 65.1005 48.3399 64.8566C49.1367 64.6304 49.3221 64.8217 48.8959 65.4302C47.9749 66.746 46.8997 67.998 46.0522 69.3714C45.6505 70.021 45.2554 70.6454 44.8668 71.2443C44.6536 71.5733 44.2397 71.6617 44.0193 72.0112C43.6552 72.5937 43.282 73.1783 42.8999 73.7648C41.9472 75.2308 40.7273 76.6083 39.5885 77.9487C39.2619 78.3325 39.1312 78.743 39.1966 79.1802C39.2017 79.2121 39.2147 79.2427 39.2348 79.2701C39.2549 79.2976 39.2815 79.3212 39.3132 79.3393C39.3449 79.3576 39.3806 79.37 39.4184 79.3759C39.456 79.3817 39.4949 79.3809 39.5322 79.3734C39.6399 79.3529 39.7394 79.3227 39.831 79.283C42.5513 78.1029 44.9973 77.0859 47.1691 76.2319C49.5033 75.3151 51.9501 74.2501 54.4264 73.3908C54.6811 73.303 54.9163 73.1392 55.1318 72.8993C55.1809 72.8446 55.243 72.8041 55.3181 72.778C56.6579 72.3031 57.9633 71.6802 59.406 71.2977C59.6655 71.2279 59.7684 71.0881 59.8615 70.8927C59.891 70.8338 59.9414 70.7962 60.0134 70.7797C60.7628 70.6016 61.5131 70.3397 62.2643 69.9943C62.2804 69.9868 62.2986 69.9827 62.3172 69.9825C62.3357 69.9822 62.3539 69.9859 62.3705 69.993C62.387 70.0001 62.4011 70.0105 62.4116 70.0233C62.4221 70.036 62.4287 70.0509 62.4309 70.0663Z" fill="#27343B"/>
<path d="M62.4309 70.0663C62.4287 70.0509 62.4221 70.036 62.4116 70.0233C62.4011 70.0105 62.387 70.0001 62.3704 69.993C62.3539 69.9859 62.3357 69.9822 62.3171 69.9825C62.2986 69.9827 62.2804 69.9868 62.2643 69.9943C61.5131 70.3397 60.7628 70.6016 60.0134 70.7797C59.9414 70.7962 59.8908 70.8338 59.8615 70.8927C59.7684 71.0881 59.6656 71.2279 59.406 71.2977C57.9633 71.6802 56.6577 72.3031 55.3181 72.778C55.2428 72.8041 55.1809 72.8446 55.1318 72.8993C54.9163 73.1392 54.6812 73.303 54.4264 73.3908C51.9501 74.2501 49.5033 75.3151 47.1691 76.2319C44.9973 77.0859 42.5513 78.1029 39.831 79.283C39.7394 79.3227 39.6399 79.3529 39.532 79.3734C39.4947 79.3809 39.456 79.3817 39.4184 79.3759C39.3806 79.37 39.3449 79.3576 39.3132 79.3393C39.2815 79.3212 39.2549 79.2976 39.2348 79.2701C39.2148 79.2427 39.2016 79.2121 39.1966 79.1802C39.1312 78.743 39.2618 78.3325 39.5885 77.9487C40.7273 76.6083 41.9472 75.2308 42.8999 73.7648C43.282 73.1783 43.6552 72.5937 44.0192 72.0112C44.2397 71.6617 44.6536 71.5733 44.8668 71.2443C45.2554 70.6454 45.6506 70.021 46.0522 69.3714C46.8996 67.998 47.9749 66.746 48.8959 65.4302C49.3221 64.8217 49.1367 64.6304 48.3399 64.8566C47.4777 65.1005 46.4522 65.2 45.2635 65.1547C45.1475 65.1506 45.0847 65.1972 45.0749 65.2945C45.0684 65.3589 45.0447 65.4185 45.0039 65.4734C44.9597 65.5323 44.8994 65.5734 44.8226 65.5967C43.8265 65.9038 42.8289 66.0354 41.8296 65.9914C41.7332 65.9873 41.6769 66.025 41.6606 66.1046C41.6312 66.2471 41.5683 66.3731 41.4719 66.4829C41.4028 66.5608 41.3015 66.6143 41.1878 66.6329C39.6251 66.892 38.212 67.4224 36.6272 67.6506C35.5299 67.8109 34.5208 68.2037 33.4185 68.4072C32.1809 68.636 30.9391 68.8505 29.6932 69.0506C29.61 69.0643 29.5675 69.0356 29.5657 68.9643C29.556 68.3585 29.7576 67.8412 30.1708 67.4121C31.0574 66.4931 31.8265 65.5721 32.4266 64.4947C33.0487 63.375 33.7811 62.2566 34.6237 61.1395C34.8669 60.8173 35.009 60.4542 35.0499 60.0499C35.058 59.9663 35.0115 59.9245 34.9102 59.9245C33.4195 59.9395 31.9466 60.13 30.4917 60.496C29.9757 60.6262 29.3845 60.6817 28.7183 60.6625C28.3608 60.6516 28.0628 60.5385 27.8243 60.3233C26.9989 59.577 27.0307 59.0116 26.9377 58.107C26.852 57.301 27.1874 56.6658 28.133 56.3368C29.3609 55.9092 30.5994 55.642 31.8486 55.535C32.8495 55.4487 33.8007 55.3316 34.702 55.1835C37.7 54.6887 40.3608 54.2816 42.6844 53.9622C43.3048 53.8773 43.967 53.8259 44.6708 53.808C44.7556 53.8054 44.8121 53.8383 44.8398 53.9067C45.0259 54.3646 45.003 54.7654 44.7711 55.1095C43.2934 57.2942 41.7161 59.481 40.0391 61.6698C39.8056 61.9755 39.9012 62.0934 40.3257 62.0235C41.5732 61.8206 42.7995 61.5356 44.0046 61.1683C45.6236 60.677 47.2499 60.2925 48.842 59.8442C51.0979 59.207 53.4785 58.73 55.8372 58.2366C56.3296 58.1337 56.6823 57.778 57.2137 57.7C58.1021 57.5684 58.9935 57.3497 59.8885 57.0441C60.2313 56.927 60.6012 56.9906 60.9392 57.0791C60.9594 57.0843 60.9781 57.093 60.9942 57.1046C61.0104 57.1162 61.0235 57.1304 61.0329 57.1463C61.0423 57.1622 61.0477 57.1797 61.0489 57.1975C61.05 57.2152 61.0469 57.233 61.0397 57.2497C60.9318 57.506 60.7995 57.7445 60.6428 57.9651C59.9325 58.963 59.2711 59.9127 58.6589 60.8146C57.8849 61.9522 56.7958 63.401 55.3914 65.1609C55.2077 65.3891 54.8942 65.5659 54.7448 65.8043C54.1546 66.7337 53.552 67.3771 53.334 68.4997C53.3271 68.5367 53.3301 68.5746 53.3426 68.6105C53.3553 68.6464 53.3773 68.6796 53.407 68.7076C53.4368 68.7355 53.4737 68.7576 53.5149 68.7721C53.556 68.7867 53.6005 68.7933 53.6452 68.7916C54.228 68.7697 54.8045 68.5935 55.3743 68.2633C56.403 67.665 57.4318 67.003 58.5462 66.5487C59.3969 66.2018 60.3219 65.8475 61.3212 65.4856C61.9116 65.2739 62.4014 64.9368 63.0383 64.8093C63.109 64.7948 63.1703 64.7588 63.2097 64.7085L63.2954 64.5934C63.3183 64.5633 63.3501 64.5434 63.391 64.5338C64.4785 64.2933 65.2696 63.6971 66.2934 63.3743C67.6993 62.9329 69.0832 62.4012 70.4451 61.7789C70.8222 61.6062 71.2582 61.5096 71.6745 61.4129C71.7513 61.3938 71.8272 61.3964 71.9023 61.4212C72.0656 61.4733 72.2127 61.5527 72.3433 61.6596C72.4036 61.7104 72.4151 61.7679 72.3776 61.8323C70.5749 64.8546 69.3746 68.0535 67.9958 71.0963C67.7344 71.6747 67.3458 72.2888 66.8298 72.9384C66.5603 73.2783 66.4755 73.6785 66.5751 74.1391C66.5849 74.1897 66.6183 74.2254 66.6756 74.246C68.0373 74.7209 68.6055 73.6189 69.7568 73.5491C69.84 73.5435 69.8866 73.5059 69.8964 73.4359L69.911 73.3393C69.9209 73.2748 69.9601 73.2276 70.0286 73.1975C70.476 72.9973 70.939 72.8472 71.4174 72.7472C72.6764 72.482 73.5459 75.2616 73.7712 75.9318C73.794 76.0031 73.7696 76.0593 73.6978 76.1004C71.7383 77.2134 69.7519 78.1913 67.7385 79.0342C66.1244 79.7106 64.6426 80.4898 63.0455 81.1662C62.7689 81.2834 62.6072 81.5384 62.3353 81.6267C60.9817 82.0735 59.6704 82.5964 58.4016 83.1954C58.0245 83.3722 57.5796 83.4462 57.0668 83.4175C56.99 83.4133 56.9493 83.3791 56.9444 83.3146C56.8145 81.8879 57.9045 80.9688 58.4041 79.7045C58.8515 78.5751 59.3299 77.5114 59.8394 76.5137C60.3995 75.4144 60.8461 74.4227 61.1792 73.5388C61.6372 72.3298 62.6439 71.4212 62.4309 70.0663Z" fill="#F5FBFE"/>
</g>
<defs>
<clipPath id="clip0_3_3">
<rect width="116" height="100" fill="white"/>
</clipPath>
</defs>
</svg>
